<svg width="50" height="20" viewBox="0 0 50 20" fill="none" xmlns="http://www.w3.org/2000/svg">
<rect width="50" height="20" rx="10" fill="white"/>
<path d="M17.424 14.286C17.7973 14.286 18.124 14.2393 18.404 14.146C18.684 14.0433 18.9173 13.9127 19.104 13.754C19.2907 13.586 19.4307 13.3947 19.524 13.18C19.6173 12.9653 19.664 12.7367 19.664 12.494C19.664 12.214 19.6033 11.9667 19.482 11.752C19.37 11.528 19.2067 11.3273 18.992 11.15C18.7773 10.9727 18.5207 10.8187 18.222 10.688C17.9233 10.548 17.5967 10.4127 17.242 10.282C16.794 10.1233 16.374 9.946 15.982 9.75C15.5993 9.554 15.2633 9.32533 14.974 9.064C14.694 8.80267 14.4747 8.49933 14.316 8.154C14.1573 7.80867 14.078 7.412 14.078 6.964C14.078 6.544 14.1573 6.16133 14.316 5.816C14.484 5.46133 14.7127 5.158 15.002 4.906C15.3007 4.654 15.6507 4.458 16.052 4.318C16.4627 4.178 16.906 4.108 17.382 4.108C17.6247 4.108 17.886 4.122 18.166 4.15C18.446 4.16867 18.7307 4.22467 19.02 4.318C19.3187 4.402 19.6127 4.528 19.902 4.696C20.1913 4.864 20.4713 5.09267 20.742 5.382L19.986 6.292C19.2673 5.60133 18.4087 5.256 17.41 5.256C17.0553 5.256 16.7473 5.30733 16.486 5.41C16.234 5.50333 16.024 5.62933 15.856 5.788C15.6973 5.93733 15.5807 6.11 15.506 6.306C15.4313 6.502 15.394 6.698 15.394 6.894C15.394 7.13667 15.436 7.36067 15.52 7.566C15.604 7.77133 15.7393 7.96267 15.926 8.14C16.122 8.308 16.374 8.476 16.682 8.644C16.99 8.80267 17.3633 8.96133 17.802 9.12C18.3993 9.33467 18.8987 9.55867 19.3 9.792C19.7107 10.0253 20.042 10.2773 20.294 10.548C20.546 10.8093 20.728 11.0893 20.84 11.388C20.952 11.6867 21.008 12.0087 21.008 12.354C21.008 13.3433 20.6907 14.118 20.056 14.678C19.4307 15.2287 18.5487 15.504 17.41 15.504C16.7287 15.504 16.0753 15.3827 15.45 15.14C14.834 14.9067 14.246 14.496 13.686 13.908L14.54 12.97C14.8667 13.362 15.282 13.6793 15.786 13.922C16.29 14.1647 16.836 14.286 17.424 14.286ZM28.1981 6.852H29.8221L26.0421 11.01L30.3541 15.308H28.6041L24.5581 11.388V15.308H23.2981V3.492H24.5581V10.856L28.1981 6.852ZM32.2395 3.492H33.8775V5.2H32.2395V3.492ZM32.4495 15.308V7.272H33.7095V15.308H32.4495Z" fill="#666666"/>
</svg>
