<svg width="24" height="24" viewBox="0 0 24 24" fill="none" xmlns="http://www.w3.org/2000/svg">
<path d="M20.2891 10.9269C21.237 11.4595 21.237 12.8325 20.2891 13.365L14.2525 16.7566C12.8524 17.5432 11.1476 17.5432 9.74754 16.7566L3.71092 13.365C2.76302 12.8325 2.76303 11.4595 3.71093 10.9269M15.7616 3.43782L14.2525 2.58993C12.8524 1.80336 11.1476 1.80336 9.74754 2.58993L3.71093 5.98149C2.76303 6.51405 2.76302 7.88705 3.71092 8.41961L9.74754 11.8112C11.1476 12.5977 12.8524 12.5977 14.2525 11.8112L20.2891 8.41961C21.237 7.88705 21.237 6.51405 20.2891 5.98149L18.7799 5.1336M20.5828 16C21.0839 16.637 20.9529 17.6455 20.1685 18.0862L14.2525 21.4101C12.8524 22.1966 11.1476 22.1966 9.74754 21.4101L3.9178 18.1347C3.11034 17.6811 2.99816 16.6312 3.54314 16" stroke="#2B3F6C" stroke-width="1.5" stroke-linecap="round"/>
</svg>
