<svg width="368" height="380" viewBox="0 0 368 380" fill="none" xmlns="http://www.w3.org/2000/svg">
<path d="M125.54 290.2C128.874 289.019 132.29 288.083 135.76 287.4L136.18 288.94C136.227 289.121 136.338 289.28 136.492 289.386C136.646 289.493 136.834 289.54 137.02 289.52L150.76 287.92C154.54 279.3 161.48 266.24 161.58 266.04C161.48 262.78 161.58 260.04 161.58 256.92C153.72 259.84 139.18 265.38 131.58 268.92C131.408 269.031 131.275 269.192 131.2 269.383C131.125 269.573 131.111 269.782 131.16 269.98C131.16 269.98 131.3 270.48 131.48 271.2C127.76 271.2 116.62 270.66 113.94 273.2C113.523 273.78 113.319 274.487 113.36 275.2C113.2 277.96 114.58 299.4 116.78 305.7C117.92 309 120.32 308.64 121.96 305.48C123.858 300.721 125.077 295.719 125.58 290.62C125.58 290.36 125.52 290.38 125.54 290.2V290.2ZM123.24 272.3C125.68 272.1 126.44 272.14 131.68 271.98C132.62 275.54 134.56 282.86 135.56 286.6C132.031 287.147 128.548 287.955 125.14 289.02C124.078 283.504 123.443 277.914 123.24 272.3Z" fill="black"/>
<path d="M309.62 97.2599C310.12 96.5599 309.48 95.6599 308.94 94.9599C310.47 93.3866 312.166 91.9849 314 90.7799C317.094 89.2378 319.923 87.2124 322.38 84.7799C323.4 83.7199 325.32 81.5399 324.6 80.2599C323.88 78.9799 322.6 78.8999 320.86 79.6399C321.614 78.8484 322.229 77.9357 322.68 76.9399C323.24 75.3799 321.92 74.1199 319.06 75.2799C320.1 73.6199 320.34 71.8799 318.58 71.0399C317.16 70.3599 315.08 71.9799 313.88 73.0399C311.524 75.0988 309.312 77.3173 307.26 79.6799C306 77.0399 304 73.9999 301.5 74.9599C299 75.9199 300.94 80.2199 302.22 82.5599L297.68 85.6999C296.994 85.3295 296.219 85.1564 295.44 85.1999C290.28 86.0799 266.58 104.12 264.18 104.12C262.34 104.12 236.06 91.5199 213.34 87.8799C213.296 87.7437 213.215 87.6225 213.105 87.5306C212.995 87.4386 212.862 87.3794 212.72 87.3599C208.757 86.6837 204.739 86.3824 200.72 86.4599C200.598 86.4681 200.48 86.5028 200.373 86.5615C200.265 86.6202 200.172 86.7016 200.1 86.7999H198.42C198.02 85.1799 196.54 81.4399 196.02 79.9999C197.38 78.8199 199.26 78.2199 200.24 76.3199C202.04 72.7999 201.96 66.6799 201.46 62.7599C203.72 61.0399 203.78 58.2799 203.26 55.4599C203.06 54.3199 202.44 51.7399 201.48 51.0999C200.94 50.7399 199.8 51.0999 198.82 51.4599C197.84 49.1799 197.84 50.2199 198.24 49.2999C198.426 48.8759 198.534 48.4221 198.56 47.9599C199.62 48.2799 201.82 46.1599 201.06 43.3599C200.662 42.3576 200.173 41.3936 199.6 40.4799C199.88 39.7999 200.48 38.9799 198.6 36.4799C197.79 35.6065 196.739 34.9939 195.58 34.7199H194.66C193.997 33.7565 193.022 33.0503 191.9 32.7199C190.206 32.288 188.41 32.5394 186.9 33.4199C186.5 33.7199 186.18 34.1199 185.78 34.3999C184.876 33.8508 183.838 33.5604 182.78 33.5604C181.722 33.5604 180.684 33.8508 179.78 34.3999C179.251 34.6077 178.769 34.9203 178.363 35.3189C177.958 35.7176 177.637 36.1942 177.42 36.7199C176.44 36.3818 175.4 36.2516 174.367 36.3377C173.334 36.4238 172.331 36.7243 171.42 37.2199C167.965 39.0934 165.381 42.2449 164.22 45.9999C164.188 46.5661 164.188 47.1337 164.22 47.6999H164C161 47.2599 157.18 54.3799 160.24 59.9199C160.6 60.5799 161.06 61.1999 161.5 61.9199C162.78 63.9199 162.28 64.5199 165.14 66.9599C165.98 67.6799 166.12 67.6199 166.64 68.0599C167.16 68.4999 166.96 68.2799 167.26 69.3999C167.424 70.0597 167.716 70.6805 168.122 71.2263C168.527 71.7722 169.036 72.2323 169.62 72.5799C169.833 74.5362 170.667 76.3727 172 77.8199C172.422 78.2924 172.915 78.6971 173.46 79.0199C173.607 79.1028 173.771 79.1507 173.94 79.1599C174.54 82.8799 175.28 87.7199 175.6 89.7799L173.82 90.7399C171.491 91.677 169.226 92.766 167.04 93.9999C166.869 94.1186 166.747 94.2968 166.7 94.4999C164.58 95.6199 162.58 96.6799 161.44 97.3599C145.56 106.78 100.46 168.88 100 171.72C99.9493 171.883 99.9493 172.057 100 172.22C100.646 173.251 101.434 174.187 102.34 175C102.061 175.509 101.725 175.985 101.34 176.42C97.34 179.04 91.34 182.94 88.12 186.42C87.8942 186.621 87.7248 186.878 87.6285 187.165C87.5322 187.452 87.5123 187.759 87.5709 188.055C87.6294 188.352 87.7644 188.629 87.9624 188.858C88.1604 189.086 88.4147 189.259 88.7 189.36C89.3 189.56 89.4 189.5 93.3 187.36C92.2282 188.3 91.3516 189.442 90.72 190.72C90.46 191.82 91.46 192.46 92.72 192.26C93.429 192.074 94.104 191.777 94.72 191.38C94.3593 191.937 94.1674 192.586 94.1674 193.25C94.1674 193.914 94.3593 194.563 94.72 195.12C96.72 197.64 101.96 189.7 104.72 187.74C105.84 189.16 107.36 192.48 109.78 191.6C111.88 190.82 109.58 186.2 109.78 184.86C110.594 184.079 111.463 183.357 112.38 182.7C113.923 183.844 115.687 184.655 117.56 185.08C120.86 185.08 155.3 150.32 157.92 147.54C156.98 156.38 152.24 194.32 153.24 201.7C153.7 205.04 161.72 205.52 165.1 205.7C164.08 229.7 163.4 266.06 163.22 266.44C157.92 277.86 156.48 280.98 154.7 284.44C151.46 290.64 137.82 313.52 136.28 318.72C136.06 319.54 136.04 319.86 136.9 321.38C134.323 324.089 131.931 326.969 129.74 330C128.64 332 133.36 350.64 136.7 357.24C137.46 358.72 138.7 361 140.36 360.94C145.36 360.76 145.34 342.8 145.2 337.78C145.199 337.625 145.142 337.476 145.04 337.36C145.946 336.007 146.935 334.711 148 333.48C148.636 333.918 149.304 334.305 150 334.64C150.68 334.94 151.44 334.42 152 333.96C158.66 328.72 194.58 283.96 202.28 262.84C205.78 253.2 210.44 239.88 211.76 230.44C212.567 224.471 212.641 218.426 211.98 212.44C211.98 212.355 212.014 212.274 212.074 212.214C212.134 212.154 212.215 212.12 212.3 212.12C212.385 212.12 212.466 212.154 212.526 212.214C212.586 212.274 212.62 212.355 212.62 212.44C213.622 218.461 213.817 224.588 213.2 230.66C211.72 243.76 201.38 271.06 195.86 281.1C200.62 280.22 210.3 278.3 214.98 276.9C230.58 272.16 244.98 258.02 246.24 242.14C246.648 234.659 246.648 227.161 246.24 219.68C246.105 209.352 244.763 199.076 242.24 189.06C246.48 186.76 250.36 184.06 251.62 181.58C254.32 176.28 247.18 145.78 245.62 137.22C254.16 138.16 268.7 139.86 275.48 134.56C283.24 128.32 300 110.76 309.62 97.2599V97.2599ZM144.12 336.68C140.52 334.5 135.48 329.32 134.72 325.26C135.54 324.22 136.4 323.26 137.2 322.18C139.91 326.316 143.29 329.973 147.2 333C146.102 334.165 145.073 335.393 144.12 336.68V336.68ZM303.12 83.1199C303.223 83.0539 303.298 82.9508 303.327 82.8318C303.357 82.7127 303.34 82.5868 303.28 82.4799C302.58 81.1799 300.48 76.5999 301.94 76.0799C302.78 75.7599 303.52 76.2799 304.14 76.9799C305.087 78.181 305.824 79.5334 306.32 80.9799C306.357 81.0975 306.425 81.2029 306.518 81.2846C306.61 81.3664 306.723 81.4215 306.844 81.4441C306.965 81.4667 307.09 81.456 307.206 81.4129C307.321 81.3699 307.423 81.2963 307.5 81.1999C309.5 78.9799 314.18 73.9199 316.82 72.5599C318.82 71.5199 319.3 73.4399 314.4 77.9199C313.275 78.7781 312.193 79.6926 311.16 80.6599C311.103 80.7384 311.072 80.8329 311.072 80.9299C311.072 81.0269 311.103 81.1214 311.16 81.1999C311.16 81.7199 311.58 82.2999 312.3 81.7599C314.039 80.2338 315.876 78.8241 317.8 77.5399C318.782 76.8422 319.924 76.4021 321.12 76.2599C320.52 78.0999 314.94 83.0999 314.46 83.6599C314.308 83.7964 314.215 83.9872 314.202 84.1912C314.189 84.3952 314.257 84.5961 314.391 84.7508C314.524 84.9054 314.713 85.0014 314.917 85.0181C315.121 85.0348 315.323 84.9708 315.48 84.8399C317.7 83.3999 321.58 80.0399 322.92 80.5399C324.26 81.0399 320.28 84.7599 319.28 85.6399C313.54 90.6199 315.02 87.4199 308.38 94.1799C305.49 91.0138 302.171 88.2672 298.52 86.0199L303.12 83.1199ZM216.22 178.78C215.88 176.02 215.46 173.04 214.94 169.94L215.8 168.8C219.8 163.66 221 155.48 220.62 149.06C222.76 158.44 224.46 167.66 225.76 176.82L216.22 178.78ZM186.48 110.3C181.22 106.3 172.76 99.3999 167.84 94.6799L175.84 90.6799C183.186 97.5416 189.474 105.454 194.5 114.16C202.184 128.277 207.885 143.386 211.44 159.06L182.92 118.72L186.64 111C186.689 110.881 186.7 110.75 186.672 110.624C186.643 110.499 186.576 110.386 186.48 110.3ZM200 87.6199C200.12 87.8399 201.5 90.7799 203.6 95.9199C203.6 96.1399 203.22 101.14 203.04 102.9C200.487 101.888 198.08 100.543 195.88 98.8999C196.32 97.1599 198.3 89.2599 198.44 87.4799L200 87.6199ZM192.9 109.1C193.04 108.74 193.18 108.26 193.34 107.7L194.68 108.4C195.44 108.9 195.14 107.38 195.82 111.78C195.82 112.52 196.02 113.34 196.06 114.24C195.14 112.58 194 110.8 192.92 109.1H192.9ZM191.78 107.42C188.002 102.061 183.7 97.0896 178.94 92.5799L194 99.1199C193.42 100.5 192.58 104.72 191.8 107.42H191.78ZM207.16 119.14C205.16 113.68 203.62 107.58 202.86 105.98C202.905 105.481 202.905 104.979 202.86 104.48C203.149 104.588 203.452 104.655 203.76 104.68C203.953 104.682 204.14 104.614 204.287 104.49C204.434 104.365 204.531 104.191 204.56 104C204.72 103.34 204.98 99.9999 205.02 99.2599C210.838 113.949 215.695 129.001 219.56 144.32C208.26 120.28 210 127.24 207.18 119.14H207.16ZM223.7 157.32C219.14 135.46 211.12 108.2 202 87.9999C205.349 88.0018 208.693 88.2693 212 88.7999C213.7 104 212.28 103.48 213.42 104.08C214.56 104.68 221.42 107.44 222.44 107.86C222.34 109.4 223.78 153.44 223.72 157.32H223.7ZM200.68 52.3799C201.723 54.6552 202.09 57.1818 201.74 59.6599C201.577 60.2906 201.243 60.8638 200.773 61.3156C200.304 61.7674 199.719 62.0802 199.082 62.2191C198.446 62.358 197.783 62.3175 197.169 62.1023C196.554 61.8871 196.011 61.5054 195.6 60.9999C194.646 58.9897 193.928 56.8755 193.46 54.6999C194 53.9999 199.76 52.5999 200.68 52.3799V52.3799ZM173.16 72.3799C172.429 72.0473 171.682 71.7536 170.92 71.4999C170.409 71.2898 169.953 70.9654 169.586 70.5516C169.22 70.1378 168.953 69.6456 168.806 69.1128C168.659 68.5799 168.637 68.0205 168.74 67.4774C168.843 66.9344 169.068 66.4221 169.4 65.9799C170.66 64.9199 171.8 64.9799 172.84 66.5599C173.5 67.7799 173.48 67.8799 173.78 67.9999C173.866 68.0379 173.959 68.0569 174.053 68.0559C174.147 68.0549 174.24 68.0338 174.325 67.9941C174.411 67.9543 174.486 67.8968 174.547 67.8253C174.609 67.7539 174.654 67.6702 174.68 67.5799C174.976 66.3281 175.024 65.0301 174.82 63.7599C174.58 62.3799 174.54 56.2599 174.58 56.0599C175.164 56.3679 175.82 56.5129 176.48 56.4799C180.1 56.3399 180.82 54.4799 182.26 52.9599C183.92 53.1199 184.26 53.9199 186.14 52.9599C187.02 52.4592 187.828 51.8401 188.54 51.1199C189.115 51.3553 189.67 51.6362 190.2 51.9599C191.399 52.5363 192.751 52.7134 194.057 52.465C195.364 52.2166 196.556 51.5559 197.46 50.5799C197.68 50.9999 197.88 51.4199 198.06 51.8599C196.222 52.4302 194.492 53.3021 192.94 54.4399C192.6 54.8599 193.1 57.1399 193.22 57.6799C191.545 57.8907 189.923 58.413 188.44 59.2199C188.14 58.1799 187.48 56.2399 186.44 55.6999C186.127 55.6042 185.793 55.6042 185.48 55.6999C183.68 55.9799 177.22 57.9199 176.44 58.9799C175.76 59.7199 177.7 65.4399 178.3 66.3799C180.6 69.9399 187.34 68.8999 188.6 64.7399C188.912 63.3438 188.912 61.896 188.6 60.4999C189.18 60.4999 190.92 59.8799 191.12 59.8199C192.5 62.9199 192.9 63.0999 194.5 66.4399C194.28 66.6199 193.92 66.9199 193.62 67.1199C192.2 68.0599 191.9 67.8999 191.98 68.2999C192.003 68.3793 192.055 68.4475 192.125 68.4917C192.195 68.5359 192.278 68.553 192.36 68.5399C193.199 68.42 194.02 68.1914 194.8 67.8599C195.267 67.6857 195.652 67.3433 195.88 66.8999C196.44 65.6399 193.34 60.8999 192.12 59.4799C192.36 59.4799 192.92 59.0799 193.34 58.8599C193.9 61.0999 194.28 62.8599 196.44 63.7399C197.064 63.9756 197.73 64.0829 198.396 64.0554C199.063 64.0279 199.717 63.8662 200.32 63.5799C200.64 67.0999 200.58 72.8199 198.9 75.9399C198.04 77.5599 195.92 78.1799 194.56 79.5199C194.16 79.8999 194.42 80.4399 194.56 81.0199C196.78 87.1999 196.82 87.1799 196.7 87.9799C196.111 91.3004 195.289 94.5751 194.24 97.7799C193.74 97.5599 188.12 94.5799 177.12 90.2999C176.78 88.0399 174.96 75.9799 174.38 73.7599C174.42 72.9799 174.32 72.7999 173.16 72.2799V72.3799ZM187.16 64.2199C186.52 66.3999 183.5 67.3399 181.34 66.7399C179.18 66.1399 179.04 65.0399 178.02 62.4399C177.542 61.4467 177.212 60.3888 177.04 59.2999C177.7 58.5799 184.92 57.0999 185.82 56.9599C187.082 59.1194 187.556 61.6501 187.16 64.1199V64.2199ZM108.9 184.3C108.14 185.04 109.16 187.46 109.32 189.56C109.32 189.74 109.32 190.52 109.2 190.58C108.1 190.94 107.08 189.28 106.46 188.28C105.84 187.28 105.22 185.92 104.24 186.28C102.24 187.22 97.6 193.38 95.78 194.02C94.86 192.26 100.12 187.24 100.3 186.96C100.377 186.831 100.418 186.684 100.417 186.534C100.416 186.384 100.374 186.237 100.296 186.109C100.218 185.982 100.106 185.878 99.9725 185.809C99.8392 185.74 99.6896 185.71 99.54 185.72C99.18 185.72 98.94 186.04 98.38 186.54C96.6767 188.202 94.7271 189.592 92.6 190.66C94.5286 188.447 96.5926 186.357 98.78 184.4C98.8881 184.289 98.9641 184.151 99 184C99 184 98.58 182.94 97.76 183.36C96.6 184 90.96 187.26 89.18 188.1C88.94 187.94 89.08 187.7 89.18 187.46C92 184 98.2 179.8 102 177.14C102.446 176.681 102.817 176.154 103.1 175.58C105.732 178.029 108.539 180.281 111.5 182.32C110.588 182.918 109.719 183.58 108.9 184.3V184.3ZM155.44 202.48C155 202.2 154.68 201.94 154.62 201.58C153.52 193.42 159.64 147.18 159.54 145.36C159.54 145.253 159.519 145.147 159.477 145.049C159.436 144.951 159.375 144.862 159.299 144.787C159.222 144.712 159.132 144.654 159.032 144.615C158.933 144.576 158.827 144.557 158.72 144.56C157.7 144.56 159.5 144.56 134.02 168.96C132.34 170.54 119.5 182.82 117.36 183.64C114.42 183.42 103.36 174.6 101.56 171.82C105.04 164.78 147.24 106.86 161.84 97.9999C162.96 97.3199 164.88 96.2599 166.98 95.1399C167.706 95.8248 168.489 96.447 169.32 96.9999C173.96 101.4 180.42 106.88 185.32 111L181.5 118.58C181.442 118.68 181.412 118.794 181.412 118.91C181.412 119.026 181.442 119.14 181.5 119.24C212.52 163.74 212.06 163.24 212.26 163.24C214.249 173.523 215.485 183.937 215.96 194.4C215.96 197.22 215.96 196.98 216.08 196.78C216.2 196.58 216.08 196.92 216.08 196.92C211.24 202.2 163.34 207.12 155.44 202.48V202.48ZM266 136.22C256.94 137.48 246.7 135.6 244.72 135.52C243.62 130.188 241.427 125.142 238.28 120.7C238.232 120.635 238.161 120.591 238.082 120.576C238.003 120.561 237.921 120.577 237.853 120.62C237.784 120.663 237.735 120.73 237.714 120.808C237.693 120.886 237.702 120.969 237.74 121.04C238.9 123.4 242.78 133.58 243.74 136.06C243.44 137.02 252.78 175.64 250.14 180.84C247.78 185.54 234.04 191.46 229.08 193.16C228.099 182.026 226.497 170.955 224.28 160C224.96 154.24 224.08 120 223.82 107.34C223.812 107.193 223.763 107.051 223.678 106.931C223.593 106.81 223.476 106.716 223.34 106.66L214.36 102.88C214.319 98.1271 214.019 93.38 213.46 88.6599C235.88 92.5399 262 105.36 264.18 105.38C267.34 105.38 290.82 87.3799 295.68 86.6599C297.84 86.3199 307.12 94.4199 308.2 96.6599C298.72 109.9 282.06 127.3 274.34 133.32C271.853 134.983 268.982 135.981 266 136.22V136.22Z" fill="black"/>
<path d="M185.1 60.22C185.075 60.0886 185.024 59.9635 184.951 59.8517C184.878 59.7399 184.783 59.6437 184.673 59.5685C184.562 59.4933 184.438 59.4406 184.307 59.4134C184.176 59.3862 184.041 59.385 183.91 59.41C183.779 59.4349 183.654 59.4855 183.542 59.5588C183.43 59.6321 183.334 59.7267 183.259 59.8372C183.183 59.9477 183.131 60.0719 183.103 60.2028C183.076 60.3337 183.075 60.4686 183.1 60.5999C183.5 62.5999 183.58 63.0599 184.46 63.0599C184.626 63.0605 184.79 63.0196 184.937 62.9409C185.083 62.8622 185.208 62.7481 185.299 62.6091C185.391 62.4701 185.446 62.3105 185.46 62.1448C185.474 61.979 185.447 61.8124 185.38 61.66C185.32 61.34 185.14 60.4 185.1 60.22V60.22ZM191.22 73.46C192.52 73.84 193.76 73.22 193.72 72.9C193.68 72.58 193.72 72.74 191.96 72.08C190.78 71.64 189.48 70.08 189.02 70.32C188.56 70.56 189.26 71.84 189.42 72.08C189.848 72.7291 190.482 73.2153 191.22 73.46V73.46ZM227.8 54.4599C225.18 65.4399 223.26 74.76 222.94 76.62C222.728 77.4292 222.687 78.274 222.82 79.1C223.88 81.36 237.58 85.82 239.32 84.94C241.06 84.06 245.58 73.8799 250.84 63.3799C254.062 63.4829 257.287 63.2483 260.46 62.68C263.801 62.0669 267.053 61.039 270.14 59.62C276.9 56.5 284.3 43.1399 285.3 36.4199C286.05 29.124 284.505 21.7759 280.88 15.4C264.1 -13.7 214.88 1.95995 218.88 34.2799C220.022 41.6754 223.1 48.6373 227.8 54.4599V54.4599ZM240 78.28C240 78.6 239.64 78.56 238 78.28C234.646 77.8584 231.398 76.821 228.42 75.22C227.02 74.46 226.64 74.3 226.78 73.96C226.92 73.62 227.22 73.74 229.38 74.34C229.58 74.34 235.78 76.34 237.56 76.96C239.86 78 240 78 240 78.28V78.28ZM239.64 45.74C241.776 45.8507 243.904 45.4099 245.82 44.4599C247.601 45.3227 249.527 45.845 251.5 46C248.14 52.26 241.32 65.02 239.12 71.82L230.64 69.48C232.64 64.56 237.06 53.04 239.6 45.74H239.64ZM238.94 44.08C237.447 43.8544 236.069 43.1453 235.018 42.0616C233.967 40.9778 233.3 39.5791 233.12 38.08C232.56 34.08 235.12 29.6 238.98 30.66C241.4 31.32 241.7 33.24 241.28 35.66C240.92 37.42 239.62 41.84 238.9 44L238.94 44.08ZM244.38 39.2799C244.594 37.9712 245.085 36.7233 245.82 35.6199C246.17 35.0185 246.682 34.5272 247.297 34.2019C247.912 33.8767 248.606 33.7305 249.3 33.7799C250.78 34.2199 251.42 37.0199 250.2 38.7799C249.028 40.3359 247.568 41.653 245.9 42.66C245.326 42.3231 244.869 41.8187 244.59 41.2145C244.311 40.6103 244.224 39.9352 244.34 39.2799H244.38ZM226 13.86C234.96 3.07995 251.82 -1.20005 264 3.23995C270.617 5.51123 276.182 10.1101 279.66 16.18C283.108 22.2471 284.583 29.2369 283.88 36.18C282.96 42.4 275.88 55.32 269.66 58.18C263.973 60.774 257.768 62.0328 251.52 61.86C250.84 61.86 250.12 61.8599 249.86 62.3399C248.68 64.7399 246.52 69.38 244.4 73.74C242.936 73.0331 241.418 72.4445 239.86 71.98C242.18 65.34 249.5 52.3 252.98 45.9799C255.995 46.2383 259.026 45.7148 261.78 44.4599C262.524 44.0683 263.141 43.4726 263.558 42.7426C263.976 42.0127 264.176 41.1789 264.136 40.339C264.096 39.4991 263.818 38.6881 263.333 38.001C262.848 37.3139 262.178 36.7793 261.4 36.4599C258.3 34.9399 255.52 38.5799 253.9 41.6399C253.46 42.4399 252.96 43.3799 252.4 44.4399C250.782 44.3336 249.187 44.0039 247.66 43.4599C249.181 42.391 250.53 41.0961 251.66 39.6199C252.293 38.6637 252.614 37.5345 252.578 36.3881C252.542 35.2418 252.152 34.1348 251.46 33.22C250.917 32.589 250.162 32.1778 249.337 32.0637C248.512 31.9495 247.674 32.1402 246.98 32.5999C245.579 33.4606 244.457 34.7072 243.747 36.1902C243.038 37.6731 242.771 39.3293 242.98 40.9599C243.197 41.8804 243.693 42.7115 244.4 43.34C243.088 43.8833 241.68 44.1554 240.26 44.1399C241.06 41.7799 242.36 37.5199 242.7 35.7799C242.913 34.7879 242.961 33.7674 242.84 32.7599C242.685 31.8951 242.284 31.0933 241.684 30.4511C241.085 29.8089 240.312 29.3536 239.46 29.1399C234.6 27.7599 231.02 33.14 231.72 38.16C231.918 39.9589 232.69 41.6463 233.922 42.972C235.154 44.2977 236.78 45.1912 238.56 45.52C236 52.72 232 64.34 230 69.3L225.6 68.16C228.42 54 228.76 54.34 228.36 54.16C223.816 48.366 220.908 41.4595 219.94 34.16C219.469 30.5405 219.765 26.8623 220.809 23.3647C221.853 19.8672 223.622 16.6287 226 13.86V13.86ZM253.76 44.56C255.16 42.02 257.96 36.46 260.68 37.82C261.224 38.0391 261.698 38.4028 262.05 38.8715C262.403 39.3403 262.62 39.8965 262.68 40.4799C262.64 43.9999 257.16 44.62 253.68 44.56H253.76ZM330.32 53.38C332.73 51.9625 335.577 51.4786 338.32 52.02C341.333 52.0739 344.212 53.2787 346.365 55.3873C348.518 57.4959 349.783 60.3485 349.9 63.36C348.088 62.3086 345.969 61.9131 343.9 62.2399C338.88 62.6799 332.32 65.4 333.2 70.24C333.92 74.24 339.2 73.7 343.2 72.62C347.2 71.54 350.38 69.58 351.2 65.72C356.06 69.26 357.2 75.46 357.4 81.52C357.4 81.6048 357.434 81.6862 357.494 81.7462C357.554 81.8062 357.635 81.84 357.72 81.84C357.805 81.84 357.886 81.8062 357.946 81.7462C358.006 81.6862 358.04 81.6048 358.04 81.52C358.18 74.74 356.96 68.1 351.42 64.24C351.477 62.5035 351.181 60.7736 350.55 59.1548C349.919 57.5361 348.966 56.0623 347.749 54.8226C346.531 53.5829 345.075 52.6032 343.468 51.9427C341.861 51.2822 340.137 50.9547 338.4 50.9799C335.624 50.5745 332.793 51.1548 330.4 52.6199C329.66 52.9799 330 53.52 330.32 53.38V53.38ZM348.56 67.72C346.3 70.68 339.9 72.22 336.94 71.72C335.84 71.54 334.94 71.08 334.7 69.94C333.98 65.94 340.88 63.76 345 63.62C346.678 63.4913 348.351 63.9202 349.76 64.84C349.609 65.8856 349.196 66.8762 348.56 67.72V67.72ZM321.16 30C323.3 27.36 321.86 22.76 315.88 22.74C313.56 22.74 312.44 25.1 312.6 27.36C312.96 32.74 319.02 32.58 321.16 30V30ZM314 27.2599C314 25.9399 314.62 24.22 316 24.24C319.22 24.24 320.7 25.74 320.7 27.4C320.62 31.18 313.74 33.1399 314 27.2599V27.2599ZM313.18 254C295.6 246.98 287.44 280.96 273.08 310.16C272.989 311.387 273.03 312.621 273.2 313.84C273.2 316.9 273.54 337.16 275.32 339.46C275.8 340.38 277.82 339.46 278.76 338.88C286.744 333.938 294.267 328.288 301.24 322C301.299 321.932 301.344 321.853 301.372 321.767C301.399 321.681 301.409 321.59 301.4 321.5C305.12 316.2 319.06 288.6 322.44 274.76C324.8 264.96 322.46 257.66 313.18 254V254ZM319.46 279.4C310.048 278.194 300.949 275.222 292.64 270.64C297.32 261.78 303.1 251.68 312.64 255.48C323.26 259.7 323.04 268.44 319.46 279.34V279.4ZM286.18 331.4C285.566 330.885 284.895 330.442 284.18 330.08C281.477 328.706 278.355 328.406 275.44 329.24C275.24 326.86 274.1 311.38 274.1 311.24C289.08 316.72 284.46 314.34 299.3 321.72C297.74 323.2 291.88 327.3 286.18 331.36V331.4ZM296.5 273.52C298.451 274.586 300.453 275.554 302.5 276.42C297.916 283.621 293.865 291.148 290.38 298.94C287.02 305.96 287.14 305.92 283.72 313.58C281.72 312.94 279.72 312.34 277.72 311.74C279.88 307.44 295.24 276 296.5 273.48V273.52ZM284.5 313.78C291 302.12 297.62 287.62 303.3 276.68C305.3 277.52 307.3 278.2 309.3 278.8C308.24 280.8 305.14 286.12 304.32 287.66C303.5 289.2 295.28 305.4 294.7 306.64C293.78 308.64 291.26 314.22 290.48 316C288.44 315.1 286.48 314.42 284.42 313.74L284.5 313.78ZM291.2 316.26C292.42 314.04 297.44 304.72 298.06 303.52C299 301.66 309.48 280.24 310.06 279C311.9 279.52 313.84 279.96 315.08 280.2C311.42 290.2 300.88 309.46 297.08 318.96C293.62 317.34 292.84 316.94 291.12 316.22L291.2 316.26ZM292.42 271.22L296 273.22C288.785 285.506 282.501 298.315 277.2 311.54L274.2 310.62C285.82 285.86 286.36 282.62 292.34 271.18L292.42 271.22ZM300.66 320.7L297.64 319.26C300.9 312.86 311.1 296.44 315.76 280.34C316.88 280.54 317.98 280.72 319.04 280.86C313.9 294.574 307.729 307.878 300.58 320.66L300.66 320.7ZM238 333.68C238.797 333.02 239.367 332.126 239.629 331.125C239.891 330.124 239.832 329.066 239.46 328.1C239.29 326.706 238.651 325.412 237.648 324.43C236.645 323.448 235.337 322.837 233.94 322.698C232.543 322.558 231.141 322.898 229.963 323.662C228.785 324.426 227.902 325.568 227.46 326.9C224.9 325.24 222.12 323.48 219.46 321.8C221.46 319.14 227.34 320.32 227.94 322.5C227.953 322.585 228 322.661 228.069 322.712C228.138 322.762 228.225 322.783 228.31 322.77C228.395 322.757 228.471 322.71 228.522 322.641C228.572 322.571 228.593 322.485 228.58 322.4C228.28 318.92 221.04 316.88 218.12 320.98C215.54 319.4 212.34 317.48 209.66 316.02C211.96 314.02 217.1 315.14 217.66 317.22C217.686 317.291 217.737 317.351 217.803 317.388C217.869 317.425 217.946 317.438 218.021 317.423C218.095 317.409 218.162 317.368 218.21 317.309C218.257 317.25 218.282 317.176 218.28 317.1C218.02 313.86 211.32 311.68 208.28 315.24C207.006 314.526 205.667 313.937 204.28 313.48C204.027 313.375 203.748 313.345 203.479 313.395C203.209 313.445 202.959 313.571 202.76 313.76C197.7 320.06 180.64 336.42 172.76 338.32C172.562 338.35 172.375 338.431 172.219 338.556C172.062 338.681 171.941 338.845 171.868 339.032C171.795 339.218 171.773 339.421 171.803 339.619C171.833 339.817 171.915 340.004 172.04 340.16C173.77 341.916 175.752 343.406 177.92 344.58C175.92 346.58 174.36 348.38 173.2 349.68C172.6 350.32 172.28 362.56 172.8 365.26C172.877 365.524 173.048 365.752 173.28 365.9C175.8 367.62 208.26 381.66 211.58 379.78C213.8 378.52 240.3 350.94 240.72 350.1C241.36 348.78 241.14 339.98 241.1 336.46C240.94 335.4 238.96 334.26 238 333.68V333.68ZM174 360.1V355.64C182.3 359.64 201.3 367.8 208.5 370.08C210.34 370.68 210.5 370.6 211.46 370.08C216.96 366.56 236.38 344.68 239.94 341.34V345.56C229.14 356.38 210.8 375.34 210.46 374.26C208.48 374.14 175.72 360.9 174 360.1ZM237.5 326.94C238.219 328.151 238.605 329.531 238.62 330.94C238.613 331.388 238.503 331.829 238.298 332.228C238.094 332.626 237.8 332.973 237.44 333.24C235.76 332.12 232.58 330.04 228.82 327.6C230.88 323.54 235.46 323.48 237.42 326.94H237.5ZM173.5 339.74C182.02 337.22 198.2 321.62 203.64 314.86C204.949 315.224 206.211 315.741 207.4 316.4C205.4 320.12 207.54 324.2 208.3 323.62C208.72 323.3 207.96 323.18 207.84 321.22C207.789 319.788 208.113 318.368 208.78 317.1C211.54 318.54 214.78 320.42 217.52 322C215.84 325.74 217.86 329.44 218.56 328.9C219.26 328.36 218.24 328.48 218.12 326.52C218.071 325.235 218.318 323.955 218.84 322.78C221.66 324.44 224.54 326.16 227.18 327.78C226.773 328.777 226.612 329.856 226.709 330.928C226.807 332 227.16 333.033 227.74 333.94C227.766 333.974 227.799 334.003 227.836 334.024C227.874 334.046 227.915 334.06 227.958 334.065C228 334.071 228.044 334.068 228.085 334.057C228.127 334.045 228.166 334.026 228.2 334C228.234 333.974 228.263 333.941 228.284 333.904C228.306 333.866 228.32 333.825 228.325 333.782C228.331 333.74 228.328 333.696 228.317 333.655C228.306 333.613 228.286 333.574 228.26 333.54C227.901 332.745 227.723 331.881 227.74 331.009C227.758 330.137 227.969 329.28 228.36 328.5C233.02 331.34 236.78 333.72 237.94 334.5C237.72 334.7 216.86 353.26 209.76 358.78C205.1 357.56 180.64 345.42 173.5 339.74ZM174.26 350.88C183.32 354.88 203.9 364.16 208.64 365.06C209.46 365.22 209.78 365.28 211.34 364.04C218 358.7 239.66 336.04 239.86 336.28C239.87 336.34 239.87 336.4 239.86 336.46V340.46C235.4 344.04 210.6 370.08 210.2 368.84C208.2 368.84 175.7 355.58 174.04 354.84C174 354 174.18 351.76 174.26 350.88V350.88ZM210.68 378.44C208.68 379.58 178.22 367.2 174.14 364.68C173.987 363.406 173.913 362.123 173.92 360.84C182.68 365.16 208.16 375.92 210.5 375.82C213.92 375.64 238.1 348.42 239.82 346.52C239.84 347.542 239.739 348.562 239.52 349.56C239.18 350.22 212 377.7 210.68 378.44V378.44ZM44.98 265.7C45.12 267.84 45.22 269.7 45.22 271.44C45.22 271.705 45.3254 271.959 45.5129 272.147C45.7004 272.335 45.9548 272.44 46.22 272.44C46.4852 272.44 46.7396 272.335 46.9271 272.147C47.1147 271.959 47.22 271.705 47.22 271.44C47.22 269.58 47.12 267.74 46.98 265.56C46.9614 265.295 46.8383 265.048 46.6376 264.873C46.437 264.699 46.1752 264.611 45.91 264.63C45.6448 264.649 45.3978 264.772 45.2234 264.972C45.049 265.173 44.9614 265.435 44.98 265.7V265.7ZM349.72 225.6C349.589 225.608 349.462 225.641 349.344 225.699C349.227 225.757 349.122 225.837 349.036 225.936C348.951 226.035 348.886 226.15 348.845 226.274C348.804 226.398 348.789 226.53 348.8 226.66C348.92 228.5 349.04 230.48 349.04 232.4C349.04 232.665 349.145 232.92 349.333 233.107C349.52 233.295 349.775 233.4 350.04 233.4C350.305 233.4 350.56 233.295 350.747 233.107C350.935 232.92 351.04 232.665 351.04 232.4C351.04 230.4 350.92 228.4 350.78 226.52C350.772 226.389 350.739 226.262 350.681 226.144C350.623 226.027 350.543 225.922 350.444 225.836C350.345 225.751 350.23 225.686 350.106 225.645C349.982 225.604 349.85 225.589 349.72 225.6V225.6ZM39.8 260.72C40.0652 260.72 40.3196 260.615 40.5071 260.427C40.6947 260.239 40.8 259.985 40.8 259.72C40.8 259.455 40.6947 259.2 40.5071 259.013C40.3196 258.825 40.0652 258.72 39.8 258.72C37.38 258.72 35.36 258.9 33.36 258.86C33.0929 258.86 32.8365 258.965 32.6457 259.152C32.455 259.339 32.3452 259.593 32.34 259.86C32.34 260.125 32.4454 260.38 32.6329 260.567C32.8204 260.755 33.0748 260.86 33.34 260.86C35.4 260.9 37.66 260.82 39.8 260.72ZM343.52 219.68C341.12 219.68 339.1 219.82 337.08 219.84C336.815 219.84 336.56 219.945 336.373 220.133C336.185 220.32 336.08 220.575 336.08 220.84C336.08 221.105 336.185 221.36 336.373 221.547C336.56 221.735 336.815 221.84 337.08 221.84C339.24 221.84 341.48 221.84 343.64 221.68C343.905 221.664 344.153 221.543 344.33 221.345C344.506 221.146 344.596 220.885 344.58 220.62C344.564 220.355 344.443 220.107 344.245 219.93C344.046 219.754 343.785 219.664 343.52 219.68V219.68ZM44.44 248.36C44.56 250.2 44.68 252.18 44.68 254.1C44.6851 254.364 44.7921 254.615 44.9786 254.801C45.165 254.988 45.4164 255.095 45.68 255.1C45.9452 255.1 46.1996 254.995 46.3871 254.807C46.5747 254.62 46.68 254.365 46.68 254.1C46.68 252.1 46.56 250.1 46.44 248.22C46.4214 247.955 46.2983 247.708 46.0976 247.533C45.897 247.359 45.6352 247.271 45.37 247.29C45.1048 247.309 44.8578 247.432 44.6834 247.632C44.509 247.833 44.4214 248.095 44.44 248.36V248.36ZM350.5 215.06C350.5 213.06 350.38 211.06 350.24 209.18C350.221 208.915 350.098 208.668 349.898 208.493C349.697 208.319 349.435 208.231 349.17 208.25C348.905 208.269 348.658 208.392 348.483 208.592C348.309 208.793 348.221 209.055 348.24 209.32C348.36 211.16 348.48 213.14 348.48 215.06C348.48 215.325 348.585 215.58 348.773 215.767C348.96 215.955 349.215 216.06 349.48 216.06C349.747 216.06 350.004 215.955 350.194 215.768C350.385 215.581 350.495 215.327 350.5 215.06V215.06ZM59.2 260.46C59.3314 260.455 59.4604 260.424 59.5798 260.369C59.6991 260.314 59.8065 260.236 59.8956 260.139C59.9848 260.042 60.0541 259.929 60.0994 259.806C60.1448 259.682 60.1654 259.551 60.16 259.42C60.1398 259.158 60.0214 258.914 59.8285 258.736C59.6356 258.558 59.3825 258.459 59.12 258.46C56.7 258.56 54.68 258.64 52.66 258.6C52.3948 258.6 52.1404 258.705 51.9529 258.893C51.7654 259.08 51.66 259.335 51.66 259.6C51.66 259.865 51.7654 260.12 51.9529 260.307C52.1404 260.495 52.3948 260.6 52.66 260.6C54.8 260.64 57.04 260.56 59.2 260.46ZM362.92 219.42C360.92 219.52 358.7 219.58 356.48 219.58C356.348 219.575 356.216 219.596 356.093 219.643C355.969 219.69 355.856 219.761 355.761 219.852C355.666 219.944 355.59 220.054 355.538 220.175C355.487 220.297 355.46 220.428 355.46 220.56C355.46 220.827 355.565 221.083 355.752 221.274C355.939 221.465 356.193 221.575 356.46 221.58C358.74 221.58 360.58 221.58 363 221.42C363.131 221.415 363.26 221.384 363.38 221.329C363.499 221.274 363.606 221.196 363.696 221.099C363.785 221.002 363.854 220.889 363.899 220.766C363.945 220.642 363.965 220.511 363.96 220.38C363.935 220.12 363.816 219.878 363.624 219.701C363.432 219.524 363.181 219.424 362.92 219.42V219.42ZM13.24 201.2C13.5 201.4 69.9 193.04 72.32 191.56C72.454 191.462 72.561 191.332 72.631 191.182C72.7009 191.031 72.7316 190.865 72.72 190.7C72.72 188.12 69.34 163.9 67.72 157.86C67.52 157.12 67.32 156.38 66.86 156.12C63.8 154.28 9.88001 164.44 6.66001 166.52C6.57274 166.572 6.49735 166.641 6.43876 166.724C6.38017 166.806 6.3397 166.901 6.32001 167C5.64001 169.42 11.5 200 13.24 201.2V201.2ZM7.54001 167.48C11.38 165.74 60.32 156.78 65.92 157.48C67.28 160.98 70.92 186.62 71.16 190.38C68.38 191.2 14 200.54 13.8 200.58C13.6 200.62 13.58 200.86 13.16 199.6C11.4 194.32 7.44001 172 7.54001 167.48V167.48Z" fill="black"/>
<path d="M76.7201 193.34C76.8289 193.138 76.8775 192.909 76.8601 192.68C76.8601 189.5 72.3001 154.2 70.6801 151.38C70.5531 151.172 70.3733 151.001 70.159 150.885C69.9447 150.77 69.7036 150.712 69.4601 150.72C62.7601 149.9 6.24005 160.94 2.52005 163.52C2.00005 163.88 2.08005 164.78 2.14005 165.74C2.46005 171 8.14005 205.6 10.1401 205.4C10.3601 205.4 10.2801 205.24 9.76005 206.3C6.64005 212.72 0.720054 233.28 0.840054 237.42C0.840054 239.16 1.24005 241.42 2.96005 241.3C15.3001 239.78 75.8001 230.18 93.2001 226.6C93.8801 226.46 94.3201 225.84 94.3001 224.82C94.0947 223.121 93.5796 221.473 92.7801 219.96C90.3401 215.38 80.2201 197.24 76.7201 193.34ZM10.2601 204.78C8.70005 202.78 2.96005 168.32 3.40005 164.5C7.80005 162.22 63.5601 151.44 69.4001 152.32C71.0001 156.72 75.1401 188.5 75.4001 192.32C68.3201 194.76 19.3001 202.68 10.2601 204.78ZM11.1401 205.38C12.8201 204.96 70.0401 195.38 75.2801 194C78.1401 196.66 91.0601 219.64 91.9001 221.6C80.4201 223.6 12.3201 234.98 2.30005 236.5C2.44005 230.44 8.66005 209.26 11.1401 205.38V205.38Z" fill="black"/>
<path d="M18.6601 226.12C20.4001 225.86 57.3201 221.42 70.6601 217.8C70.7423 217.779 70.8127 217.726 70.8559 217.653C70.899 217.579 70.9113 217.492 70.8901 217.41C70.8689 217.328 70.8159 217.257 70.7427 217.214C70.6696 217.171 70.5823 217.159 70.5001 217.18C67.8801 217.72 35.9201 221.98 18.6201 225.5C18.5723 225.491 18.5232 225.494 18.4764 225.507C18.4297 225.52 18.3866 225.544 18.3504 225.576C18.3141 225.609 18.2857 225.649 18.2673 225.694C18.2489 225.739 18.241 225.787 18.2441 225.836C18.2472 225.884 18.2613 225.931 18.2854 225.973C18.3094 226.016 18.3427 226.052 18.3828 226.079C18.4229 226.107 18.4687 226.124 18.5167 226.132C18.5648 226.139 18.6138 226.135 18.6601 226.12V226.12ZM45.6401 86.96C44.893 88.6474 44.2648 90.385 43.7601 92.16C43.7303 92.4448 43.8089 92.7304 43.9801 92.96C46.0001 96 66.7001 119.34 72.1001 122.62C72.8401 123.08 73.7201 123.4 74.2601 122.74C78.1828 117.859 83.3022 114.076 89.1201 111.76C93.8553 110.085 98.82 109.147 103.84 108.98C107.84 108.62 108.54 108.22 110.08 105.6C111.897 102.152 114.307 99.0512 117.2 96.44C120.889 93.2144 124.984 90.4847 129.38 88.32C129.578 88.2079 129.733 88.0328 129.82 87.8226C129.907 87.6124 129.921 87.3792 129.86 87.16C129.184 85.4396 128.29 83.813 127.2 82.32C127.92 82.08 128.72 81.86 128.72 81.14C128.72 79.14 111.28 53.9 106.44 49.14C105.94 48.64 105.22 47.98 104.56 48.02C94.5601 48.58 84.8201 58.02 79.1801 66.26C72.7201 66.02 68.5401 65.44 61.1801 68.54C55.9842 70.7455 51.2998 74.0001 47.4201 78.1C46.8201 78.72 42.7401 83.04 42.6801 83.38C42.6201 83.72 42.7401 83.72 45.6401 86.96V86.96ZM125.64 86.4C117.3 87.82 111.98 94.76 108.06 102.3C106.32 105.66 106.48 105.82 104.64 105.78C101.423 105.598 98.195 105.718 95.0001 106.14C92.6567 106.49 90.3526 107.066 88.1201 107.86C83.0401 109.66 77.2201 115.42 74.1201 119.7C74.0542 119.788 73.9705 119.861 73.8744 119.915C73.7783 119.968 73.672 120 73.5625 120.01C73.453 120.019 73.3427 120.006 73.2388 119.969C73.135 119.933 73.04 119.875 72.9601 119.8C66.4601 113.1 54.9601 101.34 49.1801 94.58C48.9001 94.28 49.3801 93.84 49.6601 94.16C53.4001 98.16 63.0601 107.74 73.4201 118.16C76.9201 113.7 82.3201 108.3 87.6601 106.42C90.572 105.381 93.602 104.709 96.6801 104.42C99.5626 104.201 102.458 104.201 105.34 104.42C106.52 103.06 112.36 87.62 125.6 85.9C125.639 85.9284 125.671 85.9653 125.693 86.0077C125.716 86.0502 125.729 86.0971 125.73 86.1452C125.732 86.1932 125.723 86.2411 125.704 86.2852C125.685 86.3293 125.656 86.3685 125.62 86.4H125.64ZM104.54 49.64C108.54 52.44 124.82 76.54 126.94 80.76C123.261 81.9256 119.71 83.4601 116.34 85.34C113.149 86.9398 110.355 89.2313 108.161 92.0476C105.967 94.864 104.43 98.1342 103.66 101.62C96.4801 89.94 86.4601 77.08 79.8001 67.62C80.2001 67.36 91.4401 50.42 104.54 49.64V49.64ZM61.6201 69.64C68.9201 66.7 72.9601 67.38 79.0001 67.64C85.0001 77.88 95.7801 92.32 102.88 101.78C96.327 100.229 89.4312 101.178 83.5401 104.44C80.0001 106.44 75.6801 111.24 73.0201 114.22C69.1801 111.14 47.0201 87.54 43.4601 83.54C48.9401 77.34 54.0001 72.68 61.6201 69.56V69.64ZM25.0201 120.5C24.5258 120.153 23.9414 119.957 23.3379 119.936C22.7344 119.915 22.1376 120.069 21.6201 120.38C21.2432 120.548 20.9031 120.789 20.6192 121.088C20.3353 121.388 20.1132 121.74 19.9656 122.126C19.8179 122.511 19.7476 122.922 19.7587 123.334C19.7698 123.747 19.862 124.153 20.0301 124.53C20.1982 124.907 20.4389 125.247 20.7384 125.531C21.0379 125.815 21.3904 126.037 21.7758 126.184C22.1611 126.332 22.5718 126.402 22.9843 126.391C23.3969 126.38 23.8032 126.288 24.1801 126.12C24.7822 125.988 25.33 125.677 25.751 125.227C26.172 124.777 26.4462 124.209 26.5373 123.6C26.6284 122.99 26.5321 122.367 26.2611 121.814C25.9902 121.26 25.5574 120.802 25.0201 120.5V120.5ZM23.7001 124.5C22.3001 124.94 21.4601 124.5 21.1201 123.82C20.4801 122.4 21.2801 120.22 23.3601 120.86C24.8201 121.4 26.0001 123.86 23.7001 124.6V124.5ZM126.72 28.98C127.3 30.16 130 29.72 131.18 29.34C131.8 29.14 132.2 28.92 132.26 28.32C132.44 26.82 132.64 13.82 131.96 12.56C131.89 12.4279 131.782 12.3194 131.65 12.2483C131.519 12.1771 131.369 12.1464 131.22 12.16C129.086 12.1541 126.963 12.4641 124.92 13.08C124.1 13.58 126 27.66 126.72 28.98ZM125.34 13.56C127.188 13.2957 129.056 13.2086 130.92 13.3C131.04 14.78 130.72 27.6 130.7 27.8C129.855 28.1028 128.953 28.2121 128.06 28.12C127.92 27.66 127.68 26.42 127.38 24.86C126.499 21.1325 125.818 17.3604 125.34 13.56V13.56ZM23.0801 103.62C23.272 103.718 23.4845 103.77 23.7001 103.77C23.9157 103.77 24.1282 103.718 24.3201 103.62C25.0928 103.143 25.7056 102.447 26.0801 101.62C26.1309 101.488 26.1466 101.344 26.1256 101.204C26.1046 101.064 26.0475 100.932 25.9601 100.82C25.0001 99.68 14.5201 87.54 13.2401 88.3C11.6685 89.3174 10.1774 90.4541 8.78008 91.7C8.72376 91.7504 8.67864 91.812 8.64763 91.8809C8.61663 91.9498 8.60043 92.0244 8.60008 92.1C8.56008 93.14 20.2001 102.46 23.0801 103.62V103.62ZM13.4801 88.82C14.9401 89.88 19.8601 95.96 24.4201 101.34C24.2239 101.649 23.981 101.926 23.7001 102.16C18.9058 99.0915 14.3283 95.6969 10.0001 92C11.0851 90.8608 12.2479 89.7982 13.4801 88.82V88.82ZM44.9001 44.7C45.3401 36.94 49.8601 33.34 54.5801 32.42C53.2401 37.34 53.4601 43.74 58.3201 44.56C60.6401 44.94 61.7801 43.74 63.4601 42.34C70.6401 36.34 64.8401 30.34 56.7401 30.76C59.7601 22.48 66.7401 15.74 76.0001 15.52C76.0849 15.52 76.1663 15.4863 76.2263 15.4263C76.2864 15.3663 76.3201 15.2849 76.3201 15.2C76.3201 15.1151 76.2864 15.0337 76.2263 14.9737C76.1663 14.9137 76.0849 14.88 76.0001 14.88C66.0001 14.68 58.1401 21.88 55.0401 30.88C49.7001 31.8 44.4001 35.8 44.2601 44.58C44.2522 44.622 44.2527 44.6652 44.2615 44.707C44.2703 44.7489 44.2872 44.7886 44.3114 44.8238C44.3355 44.8591 44.3664 44.8893 44.4022 44.9127C44.438 44.936 44.4781 44.9521 44.5201 44.96C44.5621 44.9679 44.6053 44.9674 44.6471 44.9586C44.6889 44.9498 44.7286 44.9328 44.7639 44.9087C44.7992 44.8846 44.8294 44.8537 44.8528 44.8179C44.8761 44.7821 44.8922 44.742 44.9001 44.7V44.7ZM56.2801 32.18C59.2601 31.98 63.7001 32.9 64.9201 35.6C65.6201 37.14 64.9201 39.04 62.4401 41.12C61.7668 41.7945 60.9987 42.3672 60.1601 42.82C57.1601 44.1 53.8401 40.4 56.2801 32.18ZM62.0001 315.04C60.0678 314.522 58.0515 314.397 56.0699 314.67C54.0883 314.943 52.1813 315.61 50.4612 316.631C48.7412 317.652 47.2427 319.007 46.0541 320.616C44.8655 322.225 44.0107 324.056 43.5401 326C42.6516 330.039 43.4041 334.266 45.632 337.75C47.86 341.235 51.3808 343.692 55.4201 344.58C59.4593 345.468 63.6861 344.716 67.1705 342.488C70.6549 340.26 73.1116 336.739 74.0001 332.7C74.3796 330.752 74.3698 328.748 73.9711 326.803C73.5725 324.859 72.793 323.013 71.6775 321.371C70.5619 319.73 69.1325 318.325 67.4716 317.238C65.8107 316.152 63.9511 315.405 62.0001 315.04V315.04ZM68.1801 331.34C67.3776 334.541 65.4565 337.348 62.7641 339.256C60.0716 341.163 56.7856 342.044 53.5001 341.74C50.4841 340.562 47.9802 338.357 46.4292 335.515C44.8781 332.672 44.3791 329.374 45.0201 326.2C45.7684 322.922 47.6717 320.022 50.3819 318.032C53.0921 316.042 56.4281 315.093 59.7801 315.36C62.8259 316.618 65.3301 318.911 66.852 321.834C68.3739 324.757 68.8159 328.123 68.1001 331.34H68.1801Z" fill="black"/>
<path d="M88.64 320.74C86.8989 320.139 85.0329 319.995 83.22 320.32C82.4687 318.597 81.5439 316.955 80.46 315.42C81.76 314.24 85.32 310.96 84.46 309.42C81.3994 305.759 77.7656 302.618 73.7 300.12C72.0024 299.169 70.133 298.564 68.2 298.34C66.92 298.52 63.88 303.5 63.2 304.62C62.76 304.62 61.2 304.12 61.08 304.06C61.08 302.62 60.66 297.42 59.36 296.82C57.9063 296.285 56.3967 295.916 54.86 295.72C53.44 295.5 40.66 297.84 39.72 299.56C39.1 300.72 40.54 305.1 40.96 306.32C39.8814 306.914 38.8455 307.582 37.86 308.32C35.86 309.74 36.4 309.68 36.04 309.52C35.6049 309.312 35.1388 309.177 34.66 309.12C33.0624 308.183 31.1892 307.83 29.36 308.12C27.52 308.72 23.18 318.6 22.48 321.14C22.251 321.78 22.189 322.469 22.3 323.14C22.78 324.46 25.98 325.52 27.32 325.94C26.95 328.513 26.95 331.126 27.32 333.7C25.56 334.18 21.9 335.26 22.1 337.06C22.3 338.86 26.98 350.74 28.92 351.68C29.9828 352.274 31.158 352.64 32.3703 352.754C33.5826 352.867 34.8053 352.726 35.96 352.34C36.6104 352.015 37.2384 351.648 37.84 351.24C38.64 351.84 39.48 352.38 40.34 352.9C39.72 354.44 38.34 357.88 38.78 359.44C39 360.26 39.66 360.52 40.58 360.86C43.12 361.78 56.8 365.06 58.88 364.7C59.66 364.58 60.08 363.76 60.32 362.98C60.7644 361.205 61.0258 359.388 61.1 357.56C62.1272 357.459 63.1485 357.305 64.16 357.1C64.7778 358.187 65.5681 359.166 66.5 360C67.52 360.72 68.38 360.36 69.54 359.62C70.1 360.34 70.94 361.34 71.84 361.44C74.1 361.7 83.44 352.9 84.4 351.1C85.2 349.6 82.28 346.92 80.98 345.74C82.3864 343.624 83.4903 341.321 84.26 338.9C85.7025 339.117 87.1624 339.198 88.62 339.14C89.28 339.14 90.04 338.9 90.32 338.28C91.54 335.5 91.18 324.96 90.32 322.28C90.2 321.5 89.3 320.98 88.64 320.74V320.74ZM89.12 322.58C89.8 325.18 90.02 335 89.02 337.54C87.2908 337.71 85.5461 337.629 83.84 337.3C83.6579 337.269 83.4707 337.307 83.3152 337.407C83.1598 337.507 83.0473 337.661 83 337.84C82.2036 340.544 80.967 343.098 79.34 345.4C79.2241 345.552 79.1719 345.744 79.1943 345.934C79.2167 346.124 79.3119 346.298 79.46 346.42C80.8633 347.532 82.0555 348.887 82.98 350.42C81.98 352.06 74.16 359.22 72 359.82C71.68 359.82 70.8 358.62 70.58 358.3C69.8413 357.19 69.1733 356.034 68.58 354.84C68.4934 354.666 68.3449 354.53 68.1637 354.46C67.9824 354.39 67.7814 354.39 67.6 354.46C61.8 356.64 59.6 355.36 59.6 356.8C59.6026 358.956 59.2513 361.098 58.56 363.14C53.8599 362.629 49.2314 361.596 44.76 360.06C44.976 357.925 45.572 355.845 46.52 353.92C47.12 352.58 44.72 352.96 40.24 348.4C40.0959 348.266 39.9066 348.192 39.71 348.192C39.5135 348.192 39.3242 348.266 39.18 348.4C37.18 350.04 34.58 351.64 34.06 351.38C33.04 350.88 28.34 340.22 28.06 338.06C29.4826 337.069 31.0974 336.387 32.8 336.06C32.9816 336.009 33.1384 335.893 33.2414 335.735C33.3444 335.577 33.3865 335.387 33.36 335.2C32.8699 332.368 32.8699 329.472 33.36 326.64C33.3906 326.466 33.3539 326.286 33.2575 326.138C33.161 325.989 33.0118 325.883 32.84 325.84C31.3323 325.445 29.8807 324.86 28.52 324.1C28.08 323.78 28.12 323.8 28.16 323.46C29.4546 318.791 31.5306 314.375 34.3 310.4C35.38 310.1 38.3 312.24 39.3 313C39.4045 313.101 39.5444 313.158 39.69 313.158C39.8357 313.158 39.9755 313.101 40.08 313C40.999 312.047 41.9885 311.164 43.04 310.36C46.08 308.06 46.9 308.36 46.64 307.56C45.7206 305.553 45.2042 303.386 45.12 301.18C45.43 300.922 45.7817 300.719 46.16 300.58C48.0272 299.842 49.9456 299.24 51.9 298.78C54.269 298.12 56.7039 297.724 59.16 297.6C59.58 297.78 59.96 299.6 60.06 300.16C60.8 304.16 60.3 304.98 60.88 305.04C66.58 305.6 67.74 307.18 68.14 306.48C69.2491 304.541 70.5417 302.712 72 301.02C72.42 300.6 72.4 300.4 73.66 301.12C77.4243 303.58 80.7956 306.594 83.66 310.06C83.96 310.58 81.36 313.34 79.46 314.96C78.8 315.54 79.74 315.8 81.46 319.08C83.18 322.36 82.78 323.28 83.7 323.08C85.4736 322.655 87.2988 322.487 89.12 322.58V322.58ZM366.7 155.46C362.507 153.747 358.111 152.584 353.62 152C350.34 151.48 346.48 150.96 343.22 150.54C346.36 146.1 355.66 134.86 357.22 132.12C357.66 131.38 356.82 130.34 356.2 129.72C352.72 126 346 124.6 340.84 123.8C337.88 123.32 325.52 121.8 323.42 122.8C320.9 124 302.26 152 301.7 156.26C301.7 156.98 301.94 157.26 302.64 157.52C305.58 158.6 318.84 160.28 321.8 160.98C317.8 167.98 300.02 191.64 298.28 194.98C297.86 195.82 298.12 196.32 298.62 196.48C300.42 197.194 302.272 197.769 304.16 198.2C304.88 198.42 306.46 197.44 308.76 196.04C319.08 189.84 363.36 160.6 366.76 156.82C366.854 156.731 366.928 156.623 366.976 156.504C367.024 156.384 367.047 156.255 367.041 156.126C367.035 155.997 367.002 155.871 366.943 155.756C366.884 155.641 366.801 155.54 366.7 155.46V155.46ZM323.72 179.46C306.72 190.68 300.98 193.96 300.78 194.1C303.52 189.92 320.54 166.6 323.46 161.02C323.511 160.912 323.537 160.794 323.536 160.675C323.536 160.556 323.509 160.438 323.457 160.331C323.405 160.224 323.33 160.129 323.237 160.055C323.144 159.98 323.036 159.927 322.92 159.9C320.92 159.18 306.36 157.62 302.92 156.4C303.36 152.68 321.52 124.56 323.72 123.44C325.92 122.32 347.26 124.86 351.26 127.72C349.16 131.82 337.56 146.18 335.68 149.52C335.3 150.2 335.18 150.86 335.92 151.04C336.66 151.22 355.46 153.42 359.56 154.76C354.56 158.94 329.32 175.7 323.72 179.38V179.46ZM195.42 57.1799C195.42 57.3599 195.54 57.5799 195.84 58.7399C195.919 58.9915 196.092 59.2029 196.323 59.3297C196.554 59.4565 196.826 59.4888 197.08 59.4199C197.335 59.3456 197.549 59.1733 197.677 58.9407C197.804 58.7082 197.834 58.4345 197.76 58.1799C197.56 57.3999 197.38 56.7399 197.26 56.4199C197.144 56.2003 196.949 56.0319 196.715 55.9477C196.482 55.8635 196.225 55.8694 195.995 55.9643C195.765 56.0592 195.579 56.2363 195.473 56.461C195.366 56.6858 195.348 56.9421 195.42 57.1799V57.1799Z" fill="black"/>
</svg>
