<svg width="20" height="20" viewBox="0 0 20 20" fill="none" xmlns="http://www.w3.org/2000/svg">
<g clip-path="url(#clip0_213_17794)">
<path d="M11 9V8H10V7H8V5H6V3H4V1H2V0H0V3H2V5H4V7H6V9H8V11H6V13H4V15H2V17H0V20H2V19H4V17H6V16V15H8V14V13H10V12H11V11H12V10V9H11Z" fill="black"/>
<path d="M18 0V1H16V3H14V5H12V7H10V8H9V9H8V11H9V12H10V13H12V15H14V17H15H16V18V19H18V20H20V17H18V15H16V13H14V11H12V9H14V7H16V5H18V3H20V0H18Z" fill="black"/>
</g>
<defs>
<clipPath id="clip0_213_17794">
<rect width="20" height="20" fill="white"/>
</clipPath>
</defs>
</svg>
