<svg width="384" height="48" viewBox="0 0 384 48" fill="none" xmlns="http://www.w3.org/2000/svg">
<path d="M36 22V20H34V18H30V14H26V10H22V6H10V42H22V40V38H26V34H30V30H34V28H36V26H38V22H36ZM26 26V30H22V34H18V38H14V10H18V14H22V18H26V22H30V26H26Z" fill="black"/>
<path fill-rule="evenodd" clip-rule="evenodd" d="M62 40V8H68V40H62ZM76 40V8H82V40H76Z" fill="black"/>
<path fill-rule="evenodd" clip-rule="evenodd" d="M104 6H108V42H104V6ZM120 10H124V6H136V42H124V38H120V34H116V30H112V28H110V20H112V18H116V14H120V10ZM116 22V26H120V30H124V34H128V38H132V10H128V14H124V18H120V22H116Z" fill="black"/>
<path fill-rule="evenodd" clip-rule="evenodd" d="M152 6H164V10H168V14H172V18H176V20H178V28H176V30H172V34H168V38H164V42H152V6ZM168 30V26H172V22H168V18H164V14H160V10H156V38H160V34H164V30H168ZM180 6H184V42H180V6Z" fill="black"/>
<path d="M252 8H281" stroke="black" stroke-width="4"/>
<path d="M298 8H327" stroke="black" stroke-width="4"/>
<path d="M276 40H247" stroke="black" stroke-width="4"/>
<path d="M326 40H297" stroke="black" stroke-width="4"/>
<path d="M256 10H252V14H256V10Z" fill="black"/>
<path d="M302 10H298V14H302V10Z" fill="black"/>
<path d="M256 13H252V17H256V13Z" fill="black"/>
<path d="M302 13H298V17H302V13Z" fill="black"/>
<path d="M256 17H252V21H256V17Z" fill="black"/>
<path d="M302 17H298V21H302V17Z" fill="black"/>
<path d="M272 31H276V27H272V31Z" fill="black"/>
<path d="M322 31H326V27H322V31Z" fill="black"/>
<path d="M272 35H276V31H272V35Z" fill="black"/>
<path d="M322 35H326V31H322V35Z" fill="black"/>
<path d="M272 38H276V34H272V38Z" fill="black"/>
<path d="M322 38H326V34H322V38Z" fill="black"/>
<path d="M253 14H249V18H253V14Z" fill="black"/>
<path d="M299 14H295V18H299V14Z" fill="black"/>
<path d="M275 34H279V30H275V34Z" fill="black"/>
<path d="M325 34H329V30H325V34Z" fill="black"/>
<path d="M328 36H332V32H328V36Z" fill="black"/>
<path d="M311 35H315V31H311V35Z" fill="black"/>
<path d="M311 32H315V28H311V32Z" fill="black"/>
<path d="M311 28H315V24H311V28Z" fill="black"/>
<path d="M311 25H315V21H311V25Z" fill="black"/>
<path d="M311 21H315V17H311V21Z" fill="black"/>
<path d="M311 18H315V14H311V18Z" fill="black"/>
<path d="M309 20H313V16H309V20Z" fill="black"/>
<path d="M307 22H311V18H307V22Z" fill="black"/>
<path d="M250 12H246V16H250V12Z" fill="black"/>
<path d="M278 36H282V32H278V36Z" fill="black"/>
<path d="M259 14H255V18H259V14Z" fill="black"/>
<path d="M305 14H301V18H305V14Z" fill="black"/>
<path d="M269 34H273V30H269V34Z" fill="black"/>
<path d="M319 34H323V30H319V34Z" fill="black"/>
<path d="M262 12H258V16H262V12Z" fill="black"/>
<path d="M308 12H304V16H308V12Z" fill="black"/>
<path d="M296 12H292V16H296V12Z" fill="black"/>
<path d="M371.699 34.8701L368.87 37.6985L371.699 40.5269L374.527 37.6985L371.699 34.8701Z" fill="black"/>
<path d="M368.87 32.0417L366.042 34.8701L368.87 37.6985L371.699 34.8701L368.87 32.0417Z" fill="black"/>
<path d="M366.041 29.2133L363.213 32.0417L366.041 34.8702L368.87 32.0417L366.041 29.2133Z" fill="black"/>
<path d="M363.213 26.3847L360.385 29.2131L363.213 32.0416L366.042 29.2131L363.213 26.3847Z" fill="black"/>
<path d="M361.091 24.2634L358.263 27.0918L361.091 29.9202L363.92 27.0918L361.091 24.2634Z" fill="black"/>
<path d="M358.971 22.142L356.142 24.9705L358.971 27.7989L361.799 24.9705L358.971 22.142Z" fill="black"/>
<path d="M356.142 19.3137L353.314 22.1421L356.142 24.9705L358.971 22.1421L356.142 19.3137Z" fill="black"/>
<path d="M353.313 16.4853L350.485 19.3137L353.313 22.1421L356.142 19.3137L353.313 16.4853Z" fill="black"/>
<path d="M351.192 14.364L348.364 17.1924L351.192 20.0208L354.021 17.1924L351.192 14.364Z" fill="black"/>
<path d="M348.828 11.9999L346 14.8284L348.828 17.6568L351.657 14.8284L348.828 11.9999Z" fill="black"/>
<path d="M346.828 9.99994L344 12.8284L346.828 15.6568L349.657 12.8284L346.828 9.99994Z" fill="black"/>
<path d="M344.828 7.99994L342 10.8284L344.828 13.6568L347.657 10.8284L344.828 7.99994Z" fill="black"/>
<path d="M367.455 34.8701L364.627 37.6985L367.455 40.5269L370.284 37.6985L367.455 34.8701Z" fill="black"/>
<path d="M371.699 30.6274L368.87 33.4558L371.699 36.2842L374.527 33.4558L371.699 30.6274Z" fill="black"/>
<path d="M372.405 27.092L369.577 29.9204L372.405 32.7488L375.234 29.9204L372.405 27.092Z" fill="black"/>
<path d="M363.92 35.5771L361.092 38.4055L363.92 41.2339L366.749 38.4055L363.92 35.5771Z" fill="black"/>
<path d="M367.87 10.071L370.698 12.8994L373.526 10.071L370.698 7.24256L367.87 10.071Z" fill="black"/>
<path d="M365.042 12.8994L367.87 15.7278L370.699 12.8994L367.87 10.0709L365.042 12.8994Z" fill="black"/>
<path d="M362.214 15.728L365.042 18.5564L367.87 15.728L365.042 12.8995L362.214 15.728Z" fill="black"/>
<path d="M359.384 18.5563L362.213 21.3848L365.041 18.5563L362.213 15.7279L359.384 18.5563Z" fill="black"/>
<path d="M357.264 20.6777L360.092 23.5061L362.92 20.6777L360.092 17.8492L357.264 20.6777Z" fill="black"/>
<path d="M355.142 22.799L357.97 25.6274L360.798 22.799L357.97 19.9706L355.142 22.799Z" fill="black"/>
<path d="M352.314 25.6274L355.142 28.4558L357.971 25.6274L355.142 22.799L352.314 25.6274Z" fill="black"/>
<path d="M349.486 28.4558L352.314 31.2842L355.142 28.4558L352.314 25.6273L349.486 28.4558Z" fill="black"/>
<path d="M347.363 30.5771L350.192 33.4055L353.02 30.5771L350.192 27.7487L347.363 30.5771Z" fill="black"/>
<path d="M345.243 32.6984L348.071 35.5269L350.899 32.6984L348.071 29.87L345.243 32.6984Z" fill="black"/>
<path d="M343 34.8283L345.828 37.6567L348.657 34.8283L345.828 31.9999L343 34.8283Z" fill="black"/>
<path d="M342 35.8283L344.828 38.6567L347.657 35.8283L344.828 32.9999L342 35.8283Z" fill="black"/>
<path d="M367.87 14.3137L370.698 17.1421L373.526 14.3137L370.698 11.4852L367.87 14.3137Z" fill="black"/>
<path d="M363.628 10.071L366.456 12.8994L369.284 10.071L366.456 7.24256L363.628 10.071Z" fill="black"/>
<path d="M360.091 9.36396L362.92 12.1924L365.748 9.36396L362.92 6.53553L360.091 9.36396Z" fill="black"/>
<path d="M368.578 17.8493L371.406 20.6777L374.234 17.8493L371.406 15.0209L368.578 17.8493Z" fill="black"/>
<path d="M266 36H270V32H266V36Z" fill="black"/>
<path d="M316 36H320V32H316V36Z" fill="black"/>
<path fill-rule="evenodd" clip-rule="evenodd" d="M213 26H225V16V6H229H237V16H229V26V31V36V41H213V36V31V26ZM217 31V36H225V31H217ZM197 36H209V41H197V36ZM209 26H197V31H209V26ZM197 16H221V21H197V16ZM221 6H197V11H221V6Z" fill="black"/>
</svg>
