<svg width="24" height="24" viewBox="0 0 24 24" fill="none" xmlns="http://www.w3.org/2000/svg">
<g clip-path="url(#clip0_216_17924)">
<path fill-rule="evenodd" clip-rule="evenodd" d="M10.7712 0V1.34641H9.42484V2.69281H8.07843V4.03922H6.73203V5.38562H5.38562V6.73203H4.03922V8.07843H2.69281V9.42484H1.34641V10.7712H0V13.4641H1.34641V14.8105H2.69281V16.1569H4.03922V17.5033H5.38562V18.8497H6.73203V20.1961H8.07843V21.5425H9.42484V22.8889H10.7712V24.2353H13.4641V0H10.7712ZM10.7712 17.5033H9.42484V16.1569H8.07843V14.8105H6.73203V13.4641H5.38562V10.7712H6.73203V9.42484H8.07843V8.07843H9.42484V6.73203H10.7712V17.5033ZM17.5032 14.8105H18.8496V9.42485H17.5032V8.07844H16.1568V16.1569H17.5032V14.8105ZM21.5424 4.0392V5.38561H22.8888V18.8497H21.5424V20.1961H16.1568V17.5033H18.8496V16.1569H20.196V8.07842H18.8496V6.73201H16.1568V4.0392H21.5424Z" fill="black"/>
</g>
<defs>
<clipPath id="clip0_216_17924">
<rect width="24" height="24" fill="white"/>
</clipPath>
</defs>
</svg>
