<svg width="24" height="24" viewBox="0 0 24 24" fill="none" xmlns="http://www.w3.org/2000/svg">
<g clip-path="url(#clip0_216_17925)">
<path fill-rule="evenodd" clip-rule="evenodd" d="M10.6667 1.33333V0H13.3333V24H10.6667V22.6667H9.33333V21.3333H8V20H6.66667V18.6667H5.33333V17.3333H4V16H2.66667V14.6667H1.33333V13.3333H0V10.6667H1.33333V9.33333H2.66667V8H4V6.66667H5.33333V5.33333H6.66667V4H8V2.66667H9.33333V1.33333H10.6667ZM9.33333 17.3333H10.6667V6.66667H9.33333V8H8V9.33333H6.66667V10.6667H5.33333V13.3333H6.66667V14.6667H8V16H9.33333V17.3333ZM21.3333 10.6667V9.33333H24V12H22.6667V13.3333H24V16H21.3333V14.6667H20V16H17.3333V13.3333H18.6667V12H17.3333V9.33333H20V10.6667H21.3333Z" fill="black"/>
</g>
<defs>
<clipPath id="clip0_216_17925">
<rect width="24" height="24" fill="white"/>
</clipPath>
</defs>
</svg>
