<svg width="60" height="60" viewBox="0 0 60 60" fill="none" xmlns="http://www.w3.org/2000/svg">
<circle cx="30" cy="30" r="30" fill="#EF4A4A" fill-opacity="0.7"/>
<path d="M38.2891 28.9269C39.237 29.4595 39.237 30.8325 38.2891 31.365L32.2525 34.7566C30.8524 35.5432 29.1476 35.5432 27.7475 34.7566L21.7109 31.365C20.763 30.8325 20.763 29.4595 21.7109 28.9269M33.7616 21.4378L32.2525 20.5899C30.8524 19.8034 29.1476 19.8034 27.7475 20.5899L21.7109 23.9815C20.763 24.514 20.763 25.887 21.7109 26.4196L27.7475 29.8112C29.1476 30.5977 30.8524 30.5977 32.2525 29.8112L38.2891 26.4196C39.237 25.887 39.237 24.5141 38.2891 23.9815L36.7799 23.1336M38.5828 34C39.0839 34.637 38.9529 35.6455 38.1685 36.0862L32.2525 39.4101C30.8524 40.1966 29.1476 40.1966 27.7475 39.4101L21.9178 36.1347C21.1103 35.6811 20.9982 34.6312 21.5431 34" stroke="#2B3F6C" stroke-width="1.5" stroke-linecap="round"/>
</svg>
