<svg width="60" height="60" viewBox="0 0 60 60" fill="none" xmlns="http://www.w3.org/2000/svg">
<circle cx="30" cy="30" r="30" fill="#F53DB7" fill-opacity="0.7"/>
<path d="M38.6622 25C39.5131 26.4709 40 28.1786 40 30C40 35.5228 35.5229 40 30 40C28.2435 40 26.5928 39.5471 25.1582 38.7518C24.8932 38.6048 24.5786 38.5681 24.2929 38.6691L21.7703 39.5605C20.8192 39.8966 19.903 38.9804 20.239 38.0292L21.1673 35.4022C21.2644 35.1275 21.2343 34.8254 21.1011 34.5662C20.3973 33.1974 20 31.6451 20 30C20 24.4772 24.4772 20 30 20C32.2517 20 34.3295 20.7442 36.001 22" stroke="#2B3F6C" stroke-width="1.5" stroke-linecap="round"/>
<circle cx="25.05" cy="30.0498" r="1.25" fill="#2B3F6C"/>
<circle cx="30.05" cy="30.0498" r="1.25" fill="#2B3F6C"/>
<circle cx="35.05" cy="30.0498" r="1.25" fill="#2B3F6C"/>
</svg>
