<svg width="60" height="60" viewBox="0 0 60 60" fill="none" xmlns="http://www.w3.org/2000/svg">
<circle cx="30" cy="30" r="30" fill="#FBFF46" fill-opacity="0.7"/>
<path d="M36.3037 30.8089L35.7538 30.2989L36.3037 30.8089ZM29.2326 23.7378L29.7426 24.2877L29.2326 23.7378ZM39.661 22.2723L40.4047 22.3696L39.661 22.2723ZM37.7692 20.3805L37.8664 21.1241L37.7692 20.3805ZM24.4945 30.6506L25.1679 30.9808L24.4945 30.6506ZM29.3909 35.547L29.0607 34.8736L29.0607 34.8736L29.3909 35.547ZM28.1905 30.1203C27.8976 29.8274 27.4227 29.8274 27.1298 30.1203C26.8369 30.4132 26.8369 30.888 27.1298 31.1809L28.1905 30.1203ZM30.8236 34.8747C31.1165 35.1676 31.5914 35.1676 31.8843 34.8747C32.1772 34.5818 32.1772 34.107 31.8843 33.8141L30.8236 34.8747ZM24.4597 36.6425C24.7525 36.3496 24.7525 35.8747 24.4597 35.5818C24.1668 35.2889 23.6919 35.2889 23.399 35.5818L24.4597 36.6425ZM20.5706 38.4103C20.2777 38.7032 20.2777 39.178 20.5706 39.4709C20.8635 39.7638 21.3383 39.7638 21.6312 39.4709L20.5706 38.4103ZM22.3383 34.5212C22.6312 34.2283 22.6312 33.7534 22.3383 33.4605C22.0454 33.1676 21.5706 33.1676 21.2777 33.4605L22.3383 34.5212ZM19.8635 34.8747C19.5706 35.1676 19.5706 35.6425 19.8635 35.9354C20.1564 36.2283 20.6312 36.2283 20.9241 35.9354L19.8635 34.8747ZM26.581 38.7638C26.8739 38.4709 26.8739 37.996 26.581 37.7032C26.2881 37.4103 25.8132 37.4103 25.5203 37.7032L26.581 38.7638ZM24.1061 39.1174C23.8132 39.4103 23.8132 39.8851 24.1061 40.178C24.399 40.4709 24.8739 40.4709 25.1668 40.178L24.1061 39.1174ZM29.3387 38.9759C29.2801 38.5659 28.9002 38.281 28.4902 38.3395C28.0801 38.3981 27.7952 38.778 27.8538 39.1881L29.3387 38.9759ZM33.7581 35.6172L34.5006 35.5111L34.5006 35.5111L33.7581 35.6172ZM20.8534 32.1877C21.2634 32.2463 21.6433 31.9614 21.7019 31.5513C21.7605 31.1413 21.4756 30.7614 21.0655 30.7028L20.8534 32.1877ZM24.4243 26.2834L24.3182 27.0259L24.3182 27.0259L24.4243 26.2834ZM34.8159 20.1779C34.4144 20.2795 34.1713 20.6875 34.273 21.089C34.3746 21.4906 34.7826 21.7337 35.1841 21.632L34.8159 20.1779ZM32.1981 22.6781C32.5726 22.5012 32.7328 22.0542 32.5559 21.6797C32.379 21.3051 31.9319 21.1449 31.5574 21.3219L32.1981 22.6781ZM27.7504 34.63L25.4115 32.2911L24.3509 33.3518L26.6897 35.6906L27.7504 34.63ZM35.7538 30.2989C33.8601 32.3406 30.7854 34.028 29.0607 34.8736L29.721 36.2204C31.4613 35.3673 34.7569 33.5795 36.8536 31.3189L35.7538 30.2989ZM25.1679 30.9808C26.0134 29.256 27.7009 26.1814 29.7426 24.2877L28.7226 23.1879C26.462 25.2846 24.6742 28.5802 23.8211 30.3205L25.1679 30.9808ZM38.9174 22.1751C38.6135 24.4984 37.8062 28.086 35.7538 30.2989L36.8536 31.3189C39.2491 28.7361 40.0962 24.7286 40.4047 22.3696L38.9174 22.1751ZM40.4047 22.3696C40.6158 20.7557 39.2858 19.4257 37.6719 19.6368L37.8664 21.1241C38.5034 21.0408 39.0007 21.5381 38.9174 22.1751L40.4047 22.3696ZM25.4115 32.2911C25.0483 31.9279 24.9596 31.4057 25.1679 30.9808L23.8211 30.3205C23.3129 31.3571 23.5631 32.564 24.3509 33.3518L25.4115 32.2911ZM26.6897 35.6906C27.4775 36.4784 28.6844 36.7286 29.721 36.2204L29.0607 34.8736C28.6358 35.0819 28.1135 34.9932 27.7504 34.63L26.6897 35.6906ZM27.1298 31.1809L30.8236 34.8747L31.8843 33.8141L28.1905 30.1203L27.1298 31.1809ZM23.399 35.5818L20.5706 38.4103L21.6312 39.4709L24.4597 36.6425L23.399 35.5818ZM21.2777 33.4605L19.8635 34.8747L20.9241 35.9354L22.3383 34.5212L21.2777 33.4605ZM25.5203 37.7032L24.1061 39.1174L25.1668 40.178L26.581 38.7638L25.5203 37.7032ZM31.1772 24.9752C30.1032 26.0492 30.1032 27.7904 31.1772 28.8643L32.2378 27.8037C31.7497 27.3155 31.7497 26.524 32.2378 26.0359L31.1772 24.9752ZM31.1772 28.8643C32.2511 29.9383 33.9923 29.9383 35.0663 28.8643L34.0056 27.8037C33.5174 28.2918 32.726 28.2918 32.2378 27.8037L31.1772 28.8643ZM35.0663 28.8643C36.1402 27.7904 36.1402 26.0492 35.0663 24.9752L34.0056 26.0359C34.4938 26.524 34.4938 27.3155 34.0056 27.8037L35.0663 28.8643ZM35.0663 24.9752C33.9923 23.9013 32.2511 23.9013 31.1772 24.9752L32.2378 26.0359C32.726 25.5477 33.5174 25.5477 34.0056 26.0359L35.0663 24.9752ZM32.9449 35.9354L29.763 39.1174L30.8236 40.178L34.0056 36.996L32.9449 35.9354ZM32.7328 33.7434L33.0156 35.7233L34.5006 35.5111L34.2177 33.5312L32.7328 33.7434ZM29.763 39.1174C29.6173 39.263 29.3678 39.1799 29.3387 38.9759L27.8538 39.1881C28.0577 40.6157 29.8039 41.1977 30.8236 40.178L29.763 39.1174ZM34.0056 36.996C34.3951 36.6066 34.5785 36.0564 34.5006 35.5111L33.0156 35.7233C33.0268 35.8011 33.0006 35.8797 32.9449 35.9354L34.0056 36.996ZM23.0454 26.0359L19.8634 29.2179L20.9241 30.2786L24.1061 27.0966L23.0454 26.0359ZM26.5102 25.8238L24.5303 25.5409L24.3182 27.0259L26.2981 27.3087L26.5102 25.8238ZM19.8634 29.2179C18.8437 30.2376 19.4258 31.9838 20.8534 32.1877L21.0655 30.7028C20.8616 30.6737 20.7784 30.4242 20.9241 30.2786L19.8634 29.2179ZM24.1061 27.0966C24.1617 27.0409 24.2403 27.0147 24.3182 27.0259L24.5303 25.5409C23.9851 25.463 23.4349 25.6464 23.0454 26.0359L24.1061 27.0966ZM35.1841 21.632C36.1656 21.3835 37.0958 21.2249 37.8664 21.1241L37.6719 19.6368C36.8566 19.7434 35.8667 19.9118 34.8159 20.1779L35.1841 21.632ZM29.7426 24.2877C30.4421 23.639 31.2859 23.109 32.1981 22.6781L31.5574 21.3219C30.5438 21.8007 29.5614 22.41 28.7226 23.1879L29.7426 24.2877Z" fill="#2B3F6C"/>
</svg>
