<svg width="60" height="60" viewBox="0 0 60 60" fill="none" xmlns="http://www.w3.org/2000/svg">
<circle cx="30" cy="30" r="30" fill="#6E88E6" fill-opacity="0.7"/>
<path d="M39 31V35C39 37.7614 36.7614 40 34 40H26C23.2386 40 21 37.7614 21 35V27C21 24.2386 23.2386 22 26 22H30" stroke="#2B3F6C" stroke-width="1.5" stroke-linecap="round"/>
<path d="M31.2958 24.8747L34.7466 21.4188C35.527 20.6371 36.7929 20.6366 37.5739 21.4177L39.2334 23.0772C40.0078 23.8516 40.0159 25.1052 39.2515 25.8895L31.8225 33.5117C31.2581 34.0908 30.4839 34.4173 29.6756 34.4173L27.4034 34.4172C26.7664 34.4171 26.2578 33.8862 26.2846 33.2493V33.2493L26.3337 32.0816L26.3828 30.9138V30.9138C26.4144 30.1628 26.7265 29.451 27.2575 28.9192L28.8639 27.3104" stroke="#2B3F6C" stroke-width="1.5" stroke-linecap="round"/>
<path d="M35.6781 25.6068L37.3642 27.2929" stroke="#2B3F6C" stroke-width="1.5" stroke-linecap="round" stroke-linejoin="round"/>
</svg>
