<svg width="60" height="60" viewBox="0 0 60 60" fill="none" xmlns="http://www.w3.org/2000/svg">
<circle cx="30" cy="30" r="30" fill="#A9FFBC" fill-opacity="0.7"/>
<path d="M22.5255 36.6448C22.7 36.8414 22.8826 37.0315 23.0728 37.2145C24.2502 38.347 25.7222 39.2064 27.4118 39.6592C32.7465 41.0886 38.2299 37.9228 39.6593 32.5881C41.0887 27.2534 37.9229 21.7701 32.5882 20.3407C27.2536 18.9112 21.7702 22.0771 20.3408 27.4117C19.8865 29.1072 19.8963 30.8177 20.2925 32.4083C20.3549 32.6589 20.4269 32.9065 20.5082 33.1506" stroke="#2B3F6C" stroke-width="1.5" stroke-linecap="round"/>
<path d="M35.5984 26.1241C35.7722 25.7481 35.6083 25.3024 35.2323 25.1286C34.8563 24.9549 34.4106 25.1188 34.2368 25.4948L35.5984 26.1241ZM37.525 36.6057C35.8116 34.926 34.75 32.5876 34.75 29.9998H33.25C33.25 33.0069 34.4856 35.7267 36.4749 37.6768L37.525 36.6057ZM34.2368 25.4948C33.6031 26.866 33.25 28.3927 33.25 29.9998H34.75C34.75 28.6144 35.0541 27.302 35.5984 26.1241L34.2368 25.4948Z" fill="#2B3F6C"/>
<path d="M25.5494 34.8503C25.356 35.2165 24.9023 35.3566 24.536 35.1632C24.1697 34.9697 24.0296 34.516 24.2231 34.1497L25.5494 34.8503ZM23.5197 22.4592C25.5104 24.3721 26.75 27.0433 26.75 30H25.25C25.25 27.4727 24.1924 25.1859 22.4804 23.5408L23.5197 22.4592ZM24.2231 34.1497C24.8794 32.907 25.25 31.4967 25.25 30H26.75C26.75 31.7477 26.3166 33.3977 25.5494 34.8503L24.2231 34.1497Z" fill="#2B3F6C"/>
<path d="M30.75 20C30.75 19.5858 30.4142 19.25 30 19.25C29.5858 19.25 29.25 19.5858 29.25 20H30.75ZM29.25 40C29.25 40.4142 29.5858 40.75 30 40.75C30.4142 40.75 30.75 40.4142 30.75 40H29.25ZM29.25 20V40H30.75V20H29.25Z" fill="#2B3F6C"/>
<path d="M40 29.25C40.4142 29.25 40.75 29.5858 40.75 30C40.75 30.4142 40.4142 30.75 40 30.75L40 29.25ZM20 30.75C19.5858 30.75 19.25 30.4142 19.25 30C19.25 29.5858 19.5858 29.25 20 29.25L20 30.75ZM40 30.75L20 30.75L20 29.25L40 29.25L40 30.75Z" fill="#2B3F6C"/>
</svg>
