<svg width="362" height="382" viewBox="0 0 362 382" fill="none" xmlns="http://www.w3.org/2000/svg">
<path d="M258.34 156.18C259.92 158.98 264.06 164.32 264.6 164.18C268.36 162.92 271.92 161.18 275.56 159.66C277.11 159.084 278.576 158.303 279.92 157.34C286.6 152.14 288.26 145.62 279.92 143.72C278.433 143.341 276.872 143.36 275.394 143.774C273.917 144.188 272.574 144.984 271.5 146.08C270.96 143.204 269.361 140.635 267.02 138.88C265.678 138.2 264.164 137.936 262.671 138.121C261.178 138.306 259.775 138.933 258.64 139.92C253.7 143.7 255.8 151.62 258.34 156.18V156.18ZM265.58 139C268.68 140.1 270.1 144.04 270.88 147C271.06 147.68 272.56 146.16 272.88 145.98C273.787 145.161 274.883 144.58 276.07 144.29C277.257 144 278.498 144.01 279.68 144.32C285.3 145.5 286.62 148.94 282.7 153.74C278.78 158.54 276.84 158.1 264.7 163.48C262.916 161.607 261.328 159.556 259.96 157.36C257.28 153.1 255.14 146.1 257.96 141.94C258.805 140.76 259.977 139.853 261.331 139.331C262.684 138.809 264.162 138.694 265.58 139V139ZM262.58 195.26C262.402 194.264 262.002 193.321 261.409 192.501C260.817 191.681 260.047 191.004 259.158 190.522C258.268 190.04 257.282 189.764 256.271 189.715C255.26 189.667 254.252 189.846 253.32 190.24C249.16 192.44 250.02 198.72 252.26 203.02C253.71 205.465 255.464 207.716 257.48 209.72C260.38 208.6 263.24 207.36 266.12 206.16C267.378 205.668 268.557 204.994 269.62 204.16C275.98 199.08 274.78 194.46 269.26 193.46C268.084 193.186 266.859 193.207 265.694 193.521C264.528 193.835 263.459 194.432 262.58 195.26ZM268.58 204.24C267.22 205.18 262.02 207.04 257.62 209C254.546 206.08 252.392 202.327 251.42 198.2C249.42 187.8 261.22 188.68 261.98 196.2C261.98 196.6 263.22 196 263.72 195.48C264.288 194.961 264.975 194.59 265.72 194.4C266.785 194.078 267.917 194.043 269 194.3C275.64 195.58 273.54 200.78 268.54 204.24H268.58ZM292.76 175.16C292.755 174.647 292.631 174.141 292.398 173.683C292.166 173.226 291.831 172.827 291.42 172.52C288.82 170.78 285.24 174.9 289.58 180.16C290.44 181.22 292.52 183.36 293.06 182.98C294.62 182.06 296.24 181.18 297.78 180.18C300.06 178.68 302.26 174.98 300.04 173.44C298.82 172.817 297.418 172.648 296.084 172.964C294.751 173.279 293.573 174.057 292.76 175.16V175.16ZM299.18 177.66C298.24 179.04 297.98 179.02 292.88 182.4C290.793 181.027 289.251 178.969 288.52 176.58C287.7 173.42 290.08 171.86 291.62 173.64C292.12 174.22 292.26 177.02 292.94 176.24C293.626 175.288 294.581 174.564 295.683 174.161C296.785 173.758 297.982 173.695 299.12 173.98C300.88 174.6 299.92 176.6 299.18 177.66V177.66ZM77.64 179C71.8 179.38 74.02 187.76 76.3 190.82C78.5004 193.744 80.8642 196.542 83.38 199.2C85.5968 198.601 87.7177 197.692 89.68 196.5C91.6408 195.374 93.3657 193.88 94.76 192.1C98.6 187.18 96.28 182.1 92.54 182.5C91.4368 182.7 90.4117 183.205 89.581 183.958C88.7503 184.711 88.1472 185.682 87.84 186.76C87.2141 184.534 85.8799 182.572 84.0395 181.172C82.199 179.772 79.9525 179.009 77.64 179V179ZM83.64 182.2C85.2187 183.673 86.4192 185.505 87.14 187.54C87.1601 187.628 87.2097 187.707 87.2806 187.764C87.3514 187.82 87.4394 187.851 87.53 187.851C87.6206 187.851 87.7086 187.82 87.7794 187.764C87.8503 187.707 87.8999 187.628 87.92 187.54C88.74 185.72 89.78 183.82 91.92 183.38C94.06 182.94 95.92 184.92 95.92 187.14C95.92 190.64 92.3 194.3 89.24 196.04C87.353 197.052 85.3864 197.908 83.36 198.6C77.18 190.6 76.28 189.86 75.36 187.4C74.66 185.4 73.7 181.06 76.58 180.12C77.85 179.906 79.1518 179.978 80.3904 180.331C81.629 180.684 82.7733 181.309 83.74 182.16L83.64 182.2ZM78.74 95.6C75.6 96.78 78.02 100.92 79.82 102.26C81.62 103.6 82.98 104.26 84.56 105.4C85.08 105.86 87.22 103.66 87.7 103.16C89.38 101.44 90.94 98.46 89.7 96.28C88.46 94.1 85.7 94.52 85.14 97.82C84.4343 96.8329 83.4397 96.0892 82.2933 95.6915C81.1469 95.2939 79.9053 95.2619 78.74 95.6V95.6ZM87.78 95.78C89.78 95.98 90.26 99.46 87.34 102.6C86.5295 103.403 85.6604 104.145 84.74 104.82C80.06 101.4 79.84 101.34 79.18 100.44C78.52 99.54 77.18 97.42 78.7 96.62C79.2597 96.3683 79.8663 96.2382 80.48 96.2382C81.0937 96.2382 81.7003 96.3683 82.26 96.62C83.3586 97.1708 84.3009 97.9892 85 99C85.68 99.82 85.72 95.58 87.78 95.78ZM42.84 271.82C36.6886 271.694 30.7171 269.722 25.7 266.16C25.04 265.68 24.06 264.5 23.12 264.82C22.18 265.14 22.08 267.68 19.56 270.06C18.5528 271.037 17.3417 271.778 16.0138 272.231C14.6859 272.684 13.2742 272.838 11.88 272.68C11.6 272.68 11.54 273.12 11.88 273.16C14.1119 273.416 16.3676 272.958 18.3226 271.851C20.2775 270.744 21.8312 269.046 22.76 267C22.92 266.66 23.14 265.54 23.58 265.52C24.02 265.5 27.14 268.02 28.18 268.6C32.6482 271.113 37.7155 272.364 42.84 272.22C42.893 272.22 42.9439 272.199 42.9814 272.161C43.0189 272.124 43.04 272.073 43.04 272.02C43.04 271.967 43.0189 271.916 42.9814 271.879C42.9439 271.841 42.893 271.82 42.84 271.82V271.82ZM54.78 266.64C51.1 265.36 47.62 263.22 43.66 263.02C41.9725 262.944 40.2933 263.297 38.7789 264.045C37.2646 264.793 35.9645 265.913 35 267.3C34.78 267.6 35.28 267.88 35.48 267.58C36.4856 266.193 37.8539 265.111 39.4345 264.451C41.0152 263.791 42.747 263.58 44.44 263.84C48.02 264.34 51.24 266.26 54.66 267.24C54.7281 267.233 54.7923 267.205 54.843 267.159C54.8937 267.113 54.9284 267.052 54.9418 266.984C54.9552 266.917 54.9468 266.848 54.9176 266.786C54.8885 266.724 54.8403 266.673 54.78 266.64V266.64ZM345 371.8C340.36 370.72 338.64 366.08 338.08 365.06C337.76 364.46 337.38 363.18 336.5 363.34C336.08 363.485 335.716 363.757 335.46 364.12C331.46 368.98 327.36 369.96 324.9 369.74C324.56 369.74 324.58 370.22 324.9 370.26C327.153 370.446 329.408 369.914 331.34 368.74C332.26 368.2 335.96 364.74 336.36 364.38C336.76 364.02 338.94 368.54 339.92 369.46C341.244 370.901 342.997 371.876 344.92 372.24C344.978 372.251 345.039 372.238 345.087 372.204C345.136 372.17 345.169 372.118 345.18 372.06C345.191 372.002 345.178 371.941 345.144 371.893C345.11 371.844 345.058 371.811 345 371.8V371.8ZM359.84 366.54C355.14 367.08 354.06 364.16 350.82 363.04C346.16 361.46 345.7 366.64 342.82 366.08C342.42 366.08 342.24 366.62 342.64 366.7C343.327 366.775 344.021 366.677 344.661 366.415C345.3 366.153 345.864 365.736 346.3 365.2C347.76 363.84 348.76 363.06 351 363.98C352.467 364.811 353.889 365.719 355.26 366.7C355.973 367.097 356.759 367.344 357.571 367.426C358.382 367.509 359.202 367.425 359.98 367.18C360.24 367 360.24 366.5 359.84 366.54V366.54ZM180.78 68.44C181.22 68.6197 181.696 68.6916 182.169 68.6499C182.642 68.6081 183.099 68.4539 183.5 68.2C183.92 67.98 183.64 67.24 183.16 67.4C182.575 67.5785 181.971 67.686 181.36 67.72C181.08 67.72 181.1 67.54 181.16 67.28C181.793 64.7317 181.855 62.0749 181.34 59.5C181.34 59.24 180.86 59.3 180.9 59.5C181.96 65.76 179.42 67.68 180.78 68.44ZM184.42 76C185.507 75.8351 186.527 75.3748 187.37 74.6694C188.213 73.964 188.846 73.0406 189.2 72C189.34 71.62 188.68 71.24 188.5 71.6C185.3 77.6 179.96 74.34 178.18 73.12C177.92 72.96 177.7 73.36 177.94 73.52C179.743 75.08 182.036 75.9576 184.42 76V76ZM177.26 58.36C176.961 58.8749 176.538 59.3074 176.031 59.6189C175.523 59.9303 174.946 60.111 174.352 60.1447C173.757 60.1784 173.163 60.0641 172.624 59.8119C172.084 59.5598 171.616 59.1777 171.26 58.7C171.02 58.42 170.64 58.82 170.86 59.08C171.322 59.6712 171.906 60.1558 172.572 60.501C173.238 60.8461 173.971 61.0436 174.72 61.08C175.444 61.0822 176.153 60.8657 176.752 60.4589C177.352 60.0522 177.814 59.474 178.08 58.8C178.138 58.6913 178.151 58.5638 178.115 58.4457C178.08 58.3275 177.999 58.2284 177.89 58.17C177.781 58.1117 177.654 58.0989 177.536 58.1345C177.417 58.1702 177.318 58.2513 177.26 58.36V58.36ZM189.5 59.96C190.073 59.8273 190.613 59.5822 191.091 59.2388C191.568 58.8955 191.972 58.4608 192.28 57.96C192.329 57.8799 192.347 57.7843 192.33 57.6918C192.313 57.5993 192.262 57.5164 192.188 57.4592C192.113 57.4019 192.02 57.3744 191.926 57.382C191.832 57.3895 191.745 57.4316 191.68 57.5C190.3 58.62 189.46 60.62 186.36 58.4C186.14 58.24 185.86 58.6 186.06 58.76C186.517 59.1898 187.06 59.5188 187.653 59.7255C188.245 59.9322 188.875 60.0121 189.5 59.96V59.96ZM173 53.4C173.496 52.886 174.089 52.4748 174.745 52.1899C175.4 51.9051 176.105 51.7522 176.82 51.74C177.28 51.74 177.26 50.84 176.7 50.86C175.896 50.8444 175.099 51.0171 174.373 51.3644C173.647 51.7117 173.013 52.2238 172.52 52.86C172.2 53.24 172.7 53.72 173 53.4V53.4ZM59 128.66C53.26 128.26 46.76 134.16 47 140.66C40.8 135 32.4 137 30.04 143C26.04 153.24 40.76 157.94 42.92 158.68L58.6 164.12C58.6778 164.145 58.7617 164.143 58.838 164.114C58.9144 164.085 58.9785 164.03 59.02 163.96C60.48 160.72 62.62 153.96 62.64 153.84C65.76 147.84 69.66 139.98 66 133.4C65.3234 132.087 64.328 130.965 63.1049 130.137C61.8818 129.309 60.4704 128.801 59 128.66ZM66.12 143.22C65.0303 146.776 63.6455 150.235 61.98 153.56C61.98 153.56 59.8 160.16 58.42 163.28L39.74 156.78C38.92 156.5 29.48 151.54 30.16 145.12C30.4235 143.528 31.1442 142.047 32.2344 140.858C33.3246 139.668 34.7371 138.821 36.3 138.42C38.2619 137.994 40.302 138.102 42.2083 138.731C44.1146 139.361 45.8175 140.49 47.14 142C47.44 142.34 47.9 142 47.84 141.6C46.96 135.76 52.64 129.48 58.48 129.48C63.52 129.48 68.16 134.82 66.2 143.22H66.12ZM9 81.84C9.2 81.84 40.3 83.48 48.64 83.64C55.38 83.76 62.16 83.64 68.88 83.3C69.02 83.3 80.66 82.7 83.8 78C88.98 70.26 77.34 64.92 68.18 69.4C68.2962 67.8314 68.0293 66.2581 67.4021 64.8156C66.7749 63.3732 65.8064 62.1049 64.58 61.12C62.569 59.6421 60.0536 59.0226 57.5863 59.3976C55.1189 59.7726 52.9012 61.1114 51.42 63.12C45.52 48.46 19.42 48.1 14.64 62.56C14.0709 64.173 13.8533 65.889 14.0016 67.593C14.1499 69.297 14.6608 70.9496 15.5 72.44C12.3667 72.5875 9.33513 73.598 6.74 75.36C6.11826 76.0942 5.7688 77.0203 5.75058 77.9822C5.73236 78.9441 6.0465 79.8828 6.64 80.64C6.92408 80.9978 7.28193 81.2902 7.68918 81.4973C8.09642 81.7044 8.54351 81.8213 9 81.84V81.84ZM7 76.68C7 76.18 7.62 75.92 8.04 75.66C9.2 74.96 14.56 73.14 16.36 73.54C17.02 73.68 17.48 73.32 17.08 72.82C16.1332 71.5236 15.4921 70.0297 15.2046 68.4503C14.9171 66.8709 14.9908 65.2469 15.42 63.7C19.14 48.84 45.94 49.46 50.94 64.22C50.9671 64.3069 51.0183 64.3843 51.0877 64.4432C51.1571 64.5021 51.2418 64.5401 51.332 64.5527C51.4221 64.5653 51.514 64.5519 51.5968 64.5143C51.6797 64.4766 51.7502 64.4162 51.8 64.34C52.7736 62.6076 54.3311 61.2776 56.1945 60.5873C58.058 59.897 60.1061 59.8914 61.9733 60.5715C63.8405 61.2516 65.4053 62.5731 66.3883 64.3001C67.3713 66.0271 67.7086 68.0473 67.34 70C67.3156 70.0813 67.3164 70.1682 67.3423 70.249C67.3682 70.3299 67.418 70.401 67.4851 70.453C67.5523 70.505 67.6336 70.5354 67.7184 70.5402C67.8031 70.545 67.8874 70.524 67.96 70.48C75.96 65.98 87.68 70.02 83.44 77.26C80.6 82.14 69.1 82.48 68.96 82.46C44.74 82.34 73.16 83.64 11.34 81C10.22 81 5.94 81.46 6.82 76.68H7ZM269.76 41.68C272.757 42.9784 275.975 43.6912 279.24 43.78C285.24 44.08 288.42 43.12 300.98 42.68C309.54 42.38 318.12 42.22 326.66 41.74C326.86 41.74 338.66 41.02 342.82 37.24C349.98 30.84 338.28 22.88 331.44 27.56C331.728 25.732 331.558 23.861 330.943 22.1153C330.329 20.3697 329.29 18.8043 327.92 17.56C326.961 16.6633 325.81 15.9974 324.555 15.6132C323.3 15.229 321.973 15.1366 320.677 15.343C319.38 15.5495 318.148 16.0493 317.074 16.8044C316 17.5595 315.113 18.5499 314.48 19.7C314.116 17.6109 313.173 15.6658 311.759 14.0855C310.345 12.5052 308.516 11.3531 306.48 10.76C304.726 10.2966 302.886 10.266 301.118 10.671C299.35 11.0759 297.707 11.9042 296.33 13.0846C294.952 14.2651 293.883 15.7624 293.212 17.4477C292.541 19.1331 292.29 20.9561 292.48 22.76C286.357 20.9876 279.8 21.492 274.02 24.18C263 29.32 265.32 39 269.76 41.68V41.68ZM267.14 32.04C268.76 26.04 280.58 19.8 292.74 23.62C293.04 23.72 293.26 23.42 293.22 23.14C292.999 21.7393 293.066 20.3083 293.417 18.9342C293.767 17.5602 294.394 16.272 295.258 15.1481C296.123 14.0243 297.208 13.0884 298.446 12.3975C299.685 11.7066 301.051 11.2752 302.461 11.1297C303.872 10.9842 305.297 11.1275 306.65 11.551C308.004 11.9744 309.257 12.6691 310.333 13.5927C311.409 14.5163 312.285 15.6495 312.909 16.923C313.532 18.1965 313.89 19.5837 313.96 21C313.947 21.0902 313.97 21.1819 314.024 21.2551C314.079 21.3282 314.16 21.3767 314.25 21.39C314.34 21.4033 314.432 21.3802 314.505 21.3258C314.578 21.2714 314.627 21.1902 314.64 21.1C314.988 20.079 315.547 19.1427 316.281 18.3522C317.015 17.5618 317.908 16.9348 318.9 16.5121C319.893 16.0895 320.963 15.8806 322.042 15.8992C323.12 15.9178 324.183 16.1634 325.16 16.62C327.259 17.6586 328.94 19.3824 329.925 21.5063C330.911 23.6302 331.142 26.027 330.58 28.3C330.565 28.3773 330.575 28.4573 330.608 28.5288C330.64 28.6004 330.694 28.6601 330.762 28.6996C330.831 28.7391 330.909 28.7565 330.988 28.7494C331.066 28.7423 331.14 28.7111 331.2 28.66C336.22 24.14 345.56 28.82 344.28 33.86C343.906 35.0439 343.214 36.1024 342.28 36.92C338.98 40.16 326.92 40.8 326.72 40.8C320.72 40.9 295.34 41.94 294.5 41.98C287.94 42.42 280.78 43.64 274.28 42.24C271.38 41.64 269.42 41.1 267.98 38.44C266.905 36.4882 266.605 34.2031 267.14 32.04Z" fill="black"/>
<path d="M361.56 235.64C357.86 235.52 239.46 236.3 238.74 236.32C242.165 220.454 240.347 203.905 233.56 189.16C230.06 181.76 211.56 180.64 223.38 160.6C225.16 157.6 228.18 155.58 230.4 152.92C231.48 151.62 240.4 142.92 231.52 123.7C239.39 114.446 246.735 104.757 253.52 94.68C256.075 91.2464 258.173 87.4949 259.76 83.52C261.144 79.9737 261.664 76.1491 261.278 72.3621C260.892 68.575 259.611 64.9341 257.54 61.74C255.295 58.7588 252.756 56.0116 249.96 53.54C244.94 48.78 238.76 44.72 229.34 38.56C229.34 38.56 231.56 32.74 230.84 29.84C230.175 27.3204 228.951 24.9827 227.26 23C226.74 17.86 222.12 13.84 218.66 14.2C218.62 12.9375 218.208 11.715 217.475 10.6865C216.742 9.65793 215.72 8.86932 214.54 8.41997C213.836 8.25962 213.104 8.25962 212.4 8.41997C211.645 7.11423 210.569 6.02292 209.274 5.24943C207.979 4.47593 206.508 4.04587 205 3.99997C203.155 2.89519 201.08 2.2303 198.937 2.05688C196.793 1.88346 194.639 2.20617 192.64 2.99997C187.7 -0.320028 185.08 2.29997 181.96 1.51997C180.201 0.966279 178.343 0.804684 176.515 1.04656C174.687 1.28843 172.934 1.9279 171.38 2.91997C162.22 -0.100028 152.1 6.91997 148.2 15.1C145.943 16.0871 143.78 17.2787 141.74 18.66C134.36 24.54 134.78 34.66 134.86 36.06C126.98 43.2 132 53.72 132.3 54.36C131.859 56.2764 132.139 58.2881 133.088 60.0109C134.036 61.7338 135.585 63.047 137.44 63.7C137.111 64.335 136.938 65.0393 136.935 65.7546C136.933 66.4699 137.101 67.1754 137.425 67.8128C137.75 68.4502 138.221 69.0011 138.801 69.4197C139.381 69.8383 140.053 70.1127 140.76 70.22C138.88 74.38 141.94 75.66 142.08 75.8C142.724 76.356 143.516 76.7107 144.36 76.82C145.624 78.498 147.2 79.9171 149 81C154.84 85.68 161.6 87.56 167.26 85.66C169.294 84.7593 171.198 83.5888 172.92 82.18C173.5 82.5 175.28 83.32 175.28 83.32V88.54C173.58 89.74 167.14 93.62 165.68 94.4C162.448 93.9402 159.162 94.7189 156.48 96.58C135 99.5 120.2 105.18 105.94 113.56C100.12 116.98 94.88 119.78 91.7 123.88C86.82 130.18 86.34 138.58 89.06 142.96C96.18 154.5 129.88 166.24 143.36 169.92C143.115 171.269 142.585 172.55 141.806 173.678C141.026 174.805 140.015 175.754 138.84 176.46C137.3 177.48 134.98 178.12 136 181.2C112.88 198.6 120.64 231.9 121.5 235.7C118.22 235.7 1.5 238.14 0.659998 238.14C0.576528 238.16 0.502117 238.207 0.448853 238.274C0.395588 238.341 0.3666 238.424 0.3666 238.51C0.3666 238.596 0.395588 238.679 0.448853 238.746C0.502117 238.813 0.576528 238.86 0.659998 238.88C8.3 238.88 121.1 236.4 121.66 236.38C124.275 247.553 129.329 258.009 136.46 267C135.28 269.64 131.56 268.22 130.46 268.84C125.48 274.16 120.62 271.54 119.78 271.1C118.94 270.66 118.3 270.7 117.9 271.38C113.42 278.58 105.14 277.62 104.28 277.82C103.482 278.115 102.787 278.636 102.28 279.32C98.28 283.7 90.8 282.98 89.92 282.96C89.5319 282.916 89.1406 283.01 88.8151 283.226C88.4895 283.442 88.2504 283.765 88.14 284.14C87.4244 285.714 86.3497 287.099 85.002 288.183C83.6543 289.266 82.0713 290.019 80.38 290.38C80.0226 290.367 79.6709 290.472 79.3784 290.678C79.086 290.884 78.8688 291.179 78.76 291.52C79.54 295.98 75.78 299.18 74.2 300.02C73.52 300.36 72.72 300.82 72.84 301.6C73.52 306.2 69.2 308.82 67.3 310.96C66.9662 311.646 66.7886 312.397 66.78 313.16C67.253 315.031 67.1742 317 66.5531 318.828C65.932 320.655 64.7953 322.264 63.28 323.46C63.1909 323.514 63.1265 323.601 63.1003 323.702C63.0742 323.802 63.0884 323.909 63.14 324C65.96 328.76 65.92 333.82 64.68 335.52C64.6416 335.563 64.6164 335.616 64.6073 335.673C64.5983 335.73 64.6058 335.788 64.629 335.841C64.6522 335.894 64.6901 335.938 64.7381 335.97C64.7862 336.002 64.8424 336.019 64.9 336.02C74.78 344.14 73.28 350.24 77.2 354.66C80.3226 357.681 84.2551 359.731 88.52 360.56C145.82 386.08 242.92 388.56 300.24 363.3C301.68 362.66 313.34 358.58 316.7 355.92C318.44 354.52 324.52 346.16 327.12 345.52C327.205 345.492 327.277 345.434 327.321 345.356C327.365 345.279 327.379 345.187 327.36 345.1C327.053 343.093 327.335 341.039 328.173 339.189C329.011 337.339 330.368 335.773 332.08 334.68C332.9 334.12 332.78 333.36 332.24 332.68C331.221 331.4 330.593 329.853 330.43 328.225C330.267 326.597 330.576 324.957 331.32 323.5C331.349 323.443 331.365 323.38 331.368 323.316C331.37 323.252 331.359 323.189 331.334 323.13C331.309 323.071 331.272 323.018 331.225 322.975C331.177 322.931 331.121 322.899 331.06 322.88C329.302 322.192 327.819 320.943 326.843 319.326C325.867 317.71 325.451 315.817 325.66 313.94C325.66 313.829 325.616 313.722 325.537 313.643C325.458 313.564 325.351 313.52 325.24 313.52C320.62 313.12 315.4 308.04 315.92 303.16C315.92 303.062 315.89 302.967 315.832 302.888C315.774 302.808 315.693 302.75 315.6 302.72C312.93 301.987 310.522 300.512 308.656 298.466C306.791 296.42 305.544 293.886 305.06 291.16C304.94 290.54 304.18 290.62 303.6 290.68C300.393 290.922 297.185 290.206 294.386 288.621C291.587 287.036 289.322 284.655 287.88 281.78C287.825 281.697 287.745 281.633 287.652 281.597C287.559 281.561 287.457 281.555 287.36 281.58C285.348 282.162 283.203 282.087 281.236 281.368C279.269 280.649 277.582 279.322 276.42 277.58C275.28 276.56 273.94 277.58 272.68 277.8C265.74 279.34 261.62 274.2 261 273.8C260.357 273.55 259.643 273.55 259 273.8C255 274.82 249.56 272.5 247 270.12C246.952 270.063 246.889 270.021 246.818 270C246.747 269.979 246.671 269.979 246.6 270C240.74 272.3 231.74 267.54 227.8 262.74C229.08 260.5 236.3 248.16 238.56 237.14C246.12 237.14 360.66 236.38 361.58 236.32C361.94 236.2 361.96 235.64 361.56 235.64V235.64ZM207.22 28.48C208.58 25.42 211.22 25.08 211.92 23.2C212.234 21.814 212.268 20.3793 212.02 18.98C212.36 18.42 212.82 18.2 213.06 18.78C213.577 20.6125 213.78 22.5196 213.66 24.42C213.678 24.4888 213.718 24.5498 213.774 24.5934C213.83 24.637 213.899 24.6606 213.97 24.6606C214.041 24.6606 214.11 24.637 214.166 24.5934C214.222 24.5498 214.262 24.4888 214.28 24.42C214.39 23.0312 214.329 21.6341 214.1 20.26C214.36 19.98 214.86 19.6 215.14 19.88C215.275 20.0745 215.351 20.3035 215.36 20.54C215.654 22.1198 215.654 23.7402 215.36 25.32C215.36 25.62 215.8 25.66 215.88 25.32C216.212 24.1222 216.28 22.8667 216.08 21.64C216.24 21.36 216.82 21.24 216.94 21.52C218 23.78 216.28 27.52 215.88 28.44C215.48 29.36 215.18 29.86 215.58 30.6C215.58 30.6 243.98 49.66 246.78 52.06C256.58 60.44 262.78 67.82 259.5 80.6C258.338 84.6568 256.492 88.4852 254.04 91.92C251.64 95.52 236.38 116.1 231.04 122.68C226.937 112.179 220.884 102.55 213.2 94.3C217.2 91.98 227.42 87.68 234.82 80.18C237.32 77.66 237.16 75.92 235.34 73.5C230.3 66.86 217.34 52.8 209.64 35.76C209.62 35.52 205.7 31.92 207.22 28.48V28.48ZM211.1 83.62C212.5 83.02 213.9 82.42 215.28 81.76C217.28 81.16 224.44 78.32 226.44 71.42C227.063 69.1833 227.26 66.8494 227.02 64.54C235.32 75.22 237.2 75.68 235.2 78.54C231.8 83.42 219.44 90.04 212.74 94.02C211.826 93.619 210.838 93.412 209.84 93.412C208.842 93.412 207.854 93.619 206.94 94.02C205.32 93.5 203.66 93.02 202.08 92.4C200.748 91.2866 199.642 89.9289 198.82 88.4C201.106 88.7529 203.445 88.4969 205.601 87.6577C207.757 86.8185 209.654 85.4258 211.1 83.62ZM177.22 87.62C177.5 87.4 177.22 86.88 176.82 87.1L175.78 87.86V83.3C177.079 83.7323 178.42 84.0273 179.78 84.18C180.08 84.18 180.16 83.72 179.78 83.66C175.94 83.12 166.54 80.58 165.44 67.44C165.039 67.2108 164.598 67.0614 164.14 67C163.13 66.8442 162.209 66.3321 161.543 65.5562C160.878 64.7804 160.512 63.7921 160.512 62.77C160.512 61.7479 160.878 60.7596 161.543 59.9837C162.209 59.2079 163.13 58.6957 164.14 58.54C164.062 55.6007 164.398 52.6651 165.14 49.82C166.01 47.8848 167.393 46.2248 169.14 45.02C172.137 43.0784 175.578 41.9292 179.14 41.68C187.78 56.36 199.9 57.38 201.14 57.46C199.96 58.92 201.04 59.3 201.04 59.34C201.785 59.461 202.485 59.7741 203.071 60.2483C203.658 60.7225 204.111 61.3414 204.386 62.044C204.66 62.7466 204.747 63.5086 204.637 64.2549C204.528 65.0013 204.225 65.7061 203.76 66.3C202.72 67.6 201 66.3 199.86 67.28C199.812 67.3263 199.776 67.3846 199.758 67.449C199.739 67.5133 199.738 67.5814 199.754 67.6464C199.771 67.7113 199.804 67.7709 199.85 67.8189C199.897 67.8669 199.956 67.9018 200.02 67.92C201.74 78.68 194.68 81.14 193.52 81.48C193.26 81.48 193.38 81.94 193.64 81.88C194.326 81.7224 194.995 81.5014 195.64 81.22C194.92 84.22 195.22 87.22 198.26 88.2C199.087 89.9714 200.202 91.5934 201.56 93C203.222 93.791 204.94 94.4594 206.7 95C210.84 117.32 203.9 121.64 203.38 122.04C195.24 128.76 185.18 123.42 184.06 122.86C182.06 121.34 173.02 114.86 166.38 94.86C167.66 94.18 176.7 88.12 177.22 87.72V87.62ZM140.46 176.04C141.397 175.255 142.169 174.293 142.732 173.208C143.295 172.123 143.637 170.938 143.74 169.72C143.767 169.643 143.763 169.559 143.729 169.484C143.696 169.41 143.635 169.351 143.56 169.32C130.7 165.32 98.7 154.12 90.4 143.56C86.82 139 87.8 132.34 90.28 127.4C91.5773 124.9 93.4069 122.716 95.64 121C102.767 116.134 110.24 111.796 118 108.02C130.196 102.672 143.049 98.9666 156.22 97C161.36 108.82 160.56 123.26 160.22 126.38C158.9 135.96 153.7 134.22 149.24 132.38C150.34 132.04 151.42 131.66 152.5 131.26C152.8 131.14 152.68 130.68 152.36 130.78C132.94 137.24 119.84 134.66 119.78 134.78C118.449 133.978 117.042 133.308 115.58 132.78C115.3 132.78 115.18 133.14 115.46 133.24C118.179 134.298 120.67 135.866 122.8 137.86C125.04 139.86 150.52 164.24 152 165.44C152 165.44 152.24 165.6 152.38 165.56C154 165.1 157.64 164.04 159.54 166.66C159.54 166.66 144.02 174.06 136.56 180.66C136.02 177.88 138.28 178.02 140.46 176.04V176.04ZM153.84 144.04C152.1 157.18 154.68 164.34 154.7 164.42C153.896 164.533 153.105 164.727 152.34 165C151.26 163.76 125.98 139.54 123.58 137.62C122.76 136.96 121.9 136.34 121.02 135.74C130.04 136.59 139.139 135.659 147.8 133C148.025 135.137 148.676 137.208 149.713 139.09C150.75 140.972 152.153 142.628 153.84 143.96V144.04ZM129 253.82C126.06 248.28 121.48 236.3 120.84 227.82C120.12 218.5 120.3 208.94 123.58 200.12C125.884 193.439 129.807 187.433 135 182.64C135.88 190.64 140.04 197.72 145 203.9C147.74 207.34 176.2 234.18 176.4 234.1C176.6 234.02 174.4 274.76 174.4 279.34C174.072 287.644 175.978 295.884 179.92 303.2C182.397 307.838 185.114 312.345 188.06 316.7C189.6 334.4 184.62 349.18 184.62 351.28C181.74 353.28 178.92 355.52 176.06 357.6C167 338.5 156.28 316.76 161.58 293.8C161.58 293.8 163.58 295.14 164.58 295.66C165 295.88 165.36 295.24 164.94 295.02C161.231 292.501 157.78 289.62 154.64 286.42C151.52 283.28 148.64 279.9 145.74 276.54C139.342 269.605 133.728 261.986 129 253.82V253.82ZM188.66 317.7C190.08 319.7 206.66 344.1 207.16 344.72C198.72 342.92 191.84 346.24 185.3 350.72C186.5 346.46 190.58 331.16 188.68 317.7H188.66ZM75.38 349.7C74.0425 345.42 71.6967 341.524 68.54 338.34C70.38 339.52 92.44 353.3 116.86 354.14C116.914 354.124 116.962 354.092 116.996 354.047C117.03 354.001 117.049 353.946 117.049 353.89C117.049 353.833 117.03 353.779 116.996 353.733C116.962 353.688 116.914 353.656 116.86 353.64C98.5036 352.101 80.8678 345.793 65.7 335.34C67.14 332.8 66.26 328.36 64.98 325.6C66.22 326.64 85.7 340 117.64 347.9C117.701 347.919 117.767 347.912 117.823 347.882C117.879 347.852 117.921 347.801 117.94 347.74C117.959 347.679 117.952 347.613 117.922 347.557C117.892 347.501 117.841 347.459 117.78 347.44C108.34 344.86 82 336.9 64.36 323.76C67.22 321.92 68.7 317.02 67.66 312.9C81.4185 325.241 97.1414 335.198 114.18 342.36C114.46 342.48 114.72 342.06 114.42 341.94C85.3 328.8 70.8 314.32 67.78 311.78C68.72 310.06 73.78 307.78 73.78 303.06C73.7589 302.714 73.7589 302.366 73.78 302.02C88.8548 318.224 105.693 332.694 123.98 345.16C124.26 345.34 124.54 344.88 124.24 344.7C116.92 340.02 91.98 320.06 74.06 301.18C74.9979 300.463 75.9726 299.795 76.98 299.18C78.0245 298.423 78.8365 297.388 79.3242 296.194C79.8119 294.999 79.9559 293.692 79.74 292.42C83.06 298.42 94.12 316.14 116.86 332.42C117.08 332.58 117.28 332.22 117.08 332.06C105.44 323.32 88.74 307.5 80.2 291.32C80.6 291.18 87.28 290.04 89.34 284.14C104.06 315.5 124.46 330.68 128.78 334.02C129 334.18 129.32 333.86 129.1 333.68C112.745 319.996 99.4742 303.003 90.16 283.82C90.54 283.82 99.4 284.8 104.16 279.12C113.612 307.501 131.512 332.315 155.46 350.24C155.7 350.42 155.92 350.04 155.7 349.86C119 321.6 106.62 282.6 105 279.22C105 279.08 115.5 278.54 119 271.9C120.14 274.96 121 278.1 122.12 281.18C130.24 305.18 140.8 325.86 160.28 343.04C160.48 343.22 160.8 342.94 160.58 342.74C142.36 326.22 131.5 304.86 123.5 282.28C122.28 278.86 121.08 275.44 119.8 272.04C121.641 272.87 123.699 273.091 125.674 272.67C127.649 272.249 129.438 271.209 130.78 269.7C139.68 298.06 155.64 321.7 157.88 325.7C157.912 325.756 157.964 325.796 158.026 325.813C158.088 325.83 158.154 325.822 158.21 325.79C158.266 325.758 158.306 325.706 158.323 325.644C158.34 325.582 158.332 325.516 158.3 325.46C154.3 318.32 138.84 294.1 131.54 269.32C132.24 269.16 136.04 269.76 137.06 267.54C138.82 269.82 151.9 286.7 161.06 293.3C155.44 315.58 165.18 337.76 175.4 358.06C168.7 362.84 161.72 366.7 153.54 365.18C144.7 363.52 137.16 356.58 128.32 354.5C116.94 351.84 108.96 359.74 98.12 360.5C89.5 361 78.42 357.74 75.4 349.74L75.38 349.7ZM91.26 361.06C104.08 363.06 110.64 356.76 120 355.2C134.62 352.76 144.98 368.4 159.54 366.38C175.54 364.18 185.82 346.02 201.36 345.16C216.9 344.3 229.22 363.16 244.8 362.08C255.28 361.38 264.36 348.44 276.42 350.58C281.94 351.54 285.2 356.58 290.02 358.94C294.21 361.039 298.943 361.8 303.58 361.12C246.08 387.46 149.6 385 91.28 361.1L91.26 361.06ZM245.96 271C237.777 286.137 232.794 302.796 231.32 319.94C231.32 320.24 231.76 320.22 231.78 319.94C233.02 306.42 240.4 280.76 246.76 270.92C248.442 272.624 250.548 273.849 252.862 274.468C255.175 275.087 257.612 275.077 259.92 274.44C248.6 292.76 236.26 331.26 234.92 334.44C234.92 334.68 235.18 334.9 235.3 334.66C236.42 332.04 251.64 288.98 260.72 274.66C266.72 281.22 272.72 278.66 273.34 278.5C273.96 278.34 275.18 277.58 275.94 278.22C277.007 279.851 278.509 281.152 280.276 281.976C282.043 282.799 284.004 283.112 285.94 282.88C269.94 297.7 241.2 341.5 241 341.78C240.8 342.06 241.28 342.34 241.48 342.06C269.48 300.28 287.26 282.74 287.36 282.66C288.859 285.575 291.189 287.98 294.055 289.571C296.92 291.162 300.193 291.868 303.46 291.6C286.113 303.705 270.773 318.458 258 335.32C257.82 335.58 258.14 335.9 258.34 335.66C283.72 305.14 303.32 292.8 304.34 291.76C304.956 294.26 306.152 296.579 307.83 298.532C309.508 300.484 311.621 302.015 314 303C278 321.32 261.36 343.28 258 347.32C257.82 347.54 258.14 347.86 258.34 347.64C274.168 329.384 293.417 314.402 315 303.54C314.78 308.4 319.34 313.04 324 314.1C307.881 320.596 292.379 328.528 277.68 337.8C277.634 337.831 277.601 337.879 277.588 337.933C277.575 337.988 277.584 338.045 277.612 338.093C277.64 338.141 277.685 338.177 277.739 338.194C277.792 338.21 277.85 338.205 277.9 338.18C292.98 329.23 308.641 321.299 324.78 314.44C324.722 316.216 325.164 317.973 326.055 319.511C326.946 321.049 328.25 322.306 329.82 323.14C310.48 326.38 276.9 343.44 270.48 346.9C270.18 347.06 270.48 347.54 270.76 347.38C281.08 341.94 305.38 330.18 330.28 323.78C327.64 328.16 331.86 333.42 331.86 333.46C321.48 336.02 286.58 349.46 284.76 350.22C284.42 350.36 284.56 350.92 284.92 350.78C289.48 348.96 318.76 338.3 331.26 334.36C327.26 337.62 326.04 341.12 326.66 344.92C321.22 346.92 317.88 355.68 309.08 358.64C304.151 360.539 298.737 360.778 293.66 359.32C286.96 357.2 285.04 353.32 280.62 350.96C278.32 349.893 275.815 349.34 273.28 349.34C270.745 349.34 268.24 349.893 265.94 350.96C260.7 353.1 256.2 356.64 251.12 359.12C240.08 364.52 230.64 357.12 220.32 350.6C220.32 334.08 217.62 317.68 214.54 301.48C211.64 286.22 211.64 288.48 212.02 287.92C215.68 282.52 225.78 265.92 227.34 263.34C234.32 271.16 242.74 271.88 245.96 271V271ZM237.58 237C234.74 248.7 228.84 259.24 222.56 269.4C218.8 275.4 210.92 288.08 210.94 288.18C215.473 308.632 218.389 329.41 219.66 350.32C216.099 347.961 212.192 346.173 208.08 345.02C186.08 311.2 175.8 300.86 175.34 282.68C175.22 278.18 177.12 236.68 177.02 234.08C178.28 232.8 197.88 212.72 238.22 207.44C240.177 217.221 239.959 227.313 237.58 237V237Z" fill="black"/>
</svg>
