<svg width="382" height="350" viewBox="0 0 382 350" fill="none" xmlns="http://www.w3.org/2000/svg">
<path d="M251.4 51.8799C254.74 53.6999 258.4 50.8799 256.58 51.2399C255.085 51.4475 253.562 51.211 252.2 50.5599C252.859 48.0429 253.234 45.4603 253.32 42.8599C252.68 36.5599 250.22 51.1199 251.4 51.8799V51.8799ZM261 54.7199C259 56.7199 256.52 58.1799 258.58 57.9599C261.34 57.6799 263.2 54.9399 262.2 53.4999C261.4 54.0199 261.92 53.7799 261 54.7199ZM258.68 40.9999C258.08 41.7199 258.68 43.3399 258.82 44.0599C258.863 44.2568 258.979 44.4301 259.144 44.5453C259.31 44.6605 259.512 44.709 259.712 44.6812C259.911 44.6534 260.093 44.5514 260.221 44.3954C260.348 44.2394 260.412 44.0411 260.4 43.8399C260.18 42.0399 259.74 39.7599 258.68 40.9999V40.9999ZM247.52 44.6799C246.86 40.0799 245.52 42.0599 245.64 42.8199C245.8 45.8999 247.74 46.2399 247.52 44.6799ZM257.48 37.8199C268.44 38.8799 257.12 34.1599 256.52 37.6599L257.48 37.8199ZM188.36 120.1C186.08 120.9 186.54 123.32 189.36 122.26C195.126 119.945 201.183 118.43 207.36 117.76C207.36 134 206.54 140.3 207.48 140.74C208.5 140.34 209.34 118.56 209.28 116.74C209.1 113.38 191.94 118.82 188.36 120.1ZM169 142.58C166.06 148.88 160.86 157.48 167.24 159.66C170.82 160.86 185.98 159.66 183.08 151.52C180.52 144.24 172.4 135.48 169 142.58V142.58ZM269.64 184.8C266.94 184.02 243.26 179.56 242.1 180.7C239.58 183.24 253.56 181.8 269.2 186.34C269.404 186.398 269.623 186.373 269.809 186.27C269.995 186.167 270.132 185.994 270.19 185.79C270.248 185.586 270.223 185.367 270.12 185.181C270.017 184.995 269.844 184.858 269.64 184.8ZM271.86 173.26C265.005 171.622 258.029 170.538 251 170.02C250.788 170.046 250.595 170.156 250.464 170.325C250.332 170.494 250.273 170.708 250.3 170.92C250.327 171.132 250.436 171.325 250.605 171.456C250.774 171.588 250.988 171.646 251.2 171.62C258.011 172.163 264.771 173.226 271.42 174.8C271.624 174.858 271.843 174.833 272.029 174.73C272.215 174.627 272.352 174.454 272.41 174.25C272.468 174.046 272.443 173.827 272.34 173.641C272.237 173.455 272.064 173.318 271.86 173.26V173.26ZM116.04 58.6599C113.5 58.9399 112.72 58.2199 112.5 58.7799C111.96 62.4799 121.64 58.4999 116.04 58.6599ZM107.64 43.5999C107.64 38.6199 106.04 40.0999 106.04 43.5999C106.04 43.8121 106.124 44.0156 106.274 44.1656C106.424 44.3157 106.628 44.3999 106.84 44.3999C107.052 44.3999 107.256 44.3157 107.406 44.1656C107.556 44.0156 107.64 43.8121 107.64 43.5999V43.5999ZM121.82 41.7199C121.837 41.8237 121.874 41.923 121.93 42.0124C121.985 42.1017 122.058 42.1792 122.143 42.2405C122.229 42.3018 122.325 42.3456 122.428 42.3696C122.53 42.3935 122.636 42.397 122.74 42.3799C122.844 42.3629 122.943 42.3255 123.032 42.2701C123.122 42.2146 123.199 42.1421 123.261 42.0566C123.322 41.9712 123.366 41.8745 123.39 41.7722C123.414 41.6698 123.417 41.5637 123.4 41.4599C122.66 36.6399 121.24 38.0799 121.82 41.7199Z" fill="black"/>
<path d="M345 232.12C359.94 220.68 359.44 199.64 359 198.96C364.74 192.96 364.9 175.56 363.24 171.98C361 167.12 371 124.28 354.68 112.34C356.12 111.7 358.86 110.06 359.06 107.92C359.42 103.7 355.44 103.02 352.4 101.22C339.7 93.76 338.9 77.22 314.02 71.1C313.1 69.4 312.9 69.1 312.16 67.86C330.16 69.1 327.84 59.24 324.74 56.8C322.789 55.6715 320.697 54.8041 318.52 54.22C326.1 51.04 325.88 41.5 316.12 42.38C314.96 42.48 318.72 39.4 315.66 35.46C314.972 34.3972 314.001 33.5477 312.856 33.0071C311.711 32.4665 310.438 32.2562 309.18 32.4C309.18 25.7 305.96 22.98 302.14 22.98C307.76 14.74 300.26 5.55997 289.74 10.66C292.24 4.85997 285.58 -5.58003 270.32 6.51997C269.36 2.31997 256.08 -2.06003 254.64 4.07997C253.9 7.21997 248.64 -1.56003 239.04 5.63997C236.42 7.63997 235.04 10.94 238.12 11.98C228.58 12.68 224.92 21.56 232.32 23.48C233.92 23.9 229.28 24.98 230.02 30.94C230.58 35.5 234.62 38.12 237.92 35.62C239.02 34.8 238.7 34.62 238.6 35.48C238.573 35.8174 238.614 36.1569 238.721 36.4782C238.828 36.7994 238.998 37.0959 239.222 37.3497C239.446 37.6036 239.719 37.8097 240.025 37.9558C240.33 38.1019 240.662 38.1849 241 38.2C241.302 39.9518 241.764 41.6723 242.38 43.34C235.14 43.34 230.84 49.58 232.76 52.62C234.98 56.1 238.88 53.78 234 56.3C224.54 61.2 226.92 69.32 232.72 69.26C238.52 69.2 234.72 67.06 235.62 72.86C236.18 76.68 242.38 80.42 247.62 75.62C249.1 77.4 249.4 78.54 251.2 79.46C236.18 89.46 241.42 94.32 221.94 113.96C219.68 116.26 219.02 115.4 217.94 116.46C216.86 117.52 218.34 123.88 223.94 123.42C217.8 141.42 223.94 135.88 215.06 136.82C214.86 136.82 217.4 110.56 217.06 106.94C216.86 105.16 216.5 105.2 196.42 109.78C197.08 96.38 196.94 68.68 195.78 68.4C195.58 68.4 181.12 68.4 181.12 68.02C180.8 66.74 181.74 61.24 181.48 60.2C181.24 59.52 180.44 59.54 179.8 59.12C172.04 53.96 181.8 56.78 182.54 56.02C183.62 54.82 182.54 42.72 184.54 42.72C186.54 43.78 184.94 53.9 185.7 54.86C188.16 57.02 186.48 45.6 189.14 45.92C190.6 46.2 188.94 54.44 189.5 55.8C191.32 58.4 190.68 51.8 192.84 49.66C195.36 48.44 192.72 67.66 192.44 68.06C193.46 68.86 197.94 44.74 192.06 48.54C190.34 49.66 192.06 48.06 190.8 45.4C190.1 44.02 188.1 43.8 186.98 45.76C185.92 38.76 182.42 40.46 181.88 45.38C181.36 54.66 181.58 53.26 181.42 54.92C176.12 52.92 172.16 57.62 179.94 60.32C181.16 60.74 179.94 65.18 180.32 67.72C180.32 68.14 180.54 68 179.5 67.9C175.22 67.46 162.42 104.08 158.48 109.34C163.94 117.34 162.12 118.52 161.62 117.2C156.2 106 133.62 82.54 108.52 74.06C106.52 73.42 107 74.06 106.52 71.46C105.06 69.32 126.4 80.3 124.52 48.1C133.54 48.4 132.22 34.28 124.68 33.88C129.66 27.78 128.1 22.76 123.08 17.42C120.86 1.41996 103.66 1.05997 88.36 6.89997C84.74 8.27997 84.1 10.44 82.24 13.64C80.44 13.92 79.62 12.62 76.14 14.62C65.56 20.72 68.14 37.96 76.9 44.92C75.32 49.5 76.7 54.58 82.66 54.16C82.66 73.32 84.4 68.88 75.28 70.46C10.28 81.72 -7.87998 160.52 20.3 186.68C21.86 188.14 15.02 197.92 27.22 204.86C27.6109 213.744 29.7304 222.467 33.46 230.54C36.24 236.54 36.34 235.24 36.06 236.12C24.18 273.92 1.54002 341.4 1.18002 343C-0.119978 348.78 5.56002 350.46 8.18002 346.02C9.34002 344.02 41.36 257.42 45.48 246.14C47.3448 247.623 49.2876 249.005 51.3 250.28C50.44 265.66 45.52 332.28 46.4 336.12C46.5644 337.054 47.0359 337.907 47.7399 338.543C48.4439 339.179 49.34 339.562 50.2862 339.631C51.2324 339.7 52.1746 339.451 52.9632 338.923C53.7519 338.396 54.342 337.621 54.64 336.72C54.94 335.72 61.34 291.7 65.22 257.26C88.22 266.64 114.28 267.78 118.98 267.84C122.98 347.66 122.38 342.86 130.82 340.42C132.3 339.98 132.34 340.42 132.58 330.96C136.58 334.4 154.18 348.22 159.52 349.26C161.12 349.56 162.6 346.36 160.5 342.66C148.3 321.2 146.96 331.1 158.18 316.92C159.44 319.98 164.32 332.42 166.18 332.72C170.88 333.24 169.08 343.46 171.96 343.56C177.08 343.76 203.62 341.92 205.7 338.98C206.58 337.76 204.68 335.14 202.24 334.04C175.76 324.38 186.54 342.38 184.52 285.68C184.52 284.24 195.94 271.02 201.38 254.22C204.4 244.88 201.38 240.84 202.88 236.22C206.18 225.32 200.34 227.6 212.36 226.98C214.92 231.94 216.82 228.98 218.22 234.98C219.639 241.403 222.605 247.383 226.86 252.4C227.64 243.243 229.658 234.234 232.86 225.62C234.86 225.44 232.6 223.5 228.04 253.62C228.22 253.82 227.46 308.5 229.84 309.62C231.711 310.22 233.656 310.556 235.62 310.62C235.14 311 235.46 324.18 235.24 324.18C235.24 324.68 219.04 329.94 217.24 338.08C217 339.86 216.96 340.6 218.82 340.6C225 340.26 245.78 335.08 247.14 335.08C247.14 337.3 246.8 337.48 248.9 337.46C250.68 337.46 252.9 337.46 253.48 336.64C254.02 335.3 252.78 313.84 253.1 311.34C253.1 311.14 252.76 311.34 257.64 311.34C257.84 339.88 258.06 337.18 260.06 337.76C268.6 339.22 267.04 341.1 270.06 291.06C277.78 298.06 274.34 298.14 284.06 291.9C285.38 293.56 292.06 301.46 292.06 301.52C288.86 307.76 283.3 319.76 288.18 324.98C289.56 326.16 291.18 324 304.92 305.86C310.32 298.7 307.5 305.5 310.72 302.74C316.54 297.76 314.72 300.74 298.72 282.14C308.1 275.36 307.08 277.28 299.66 270.28C259.22 232.02 273.82 258.5 325.04 241.56C326.28 254.44 335.68 334.3 337.58 335.68C338.88 336.62 343.18 336.08 344.52 335.48C346.82 334.44 343.96 305.8 339.76 253.92C356.66 300.08 373.54 344.24 373.54 344.44C375.78 349.18 381.36 348.24 381.06 343.54C381 343.62 350.74 250.64 345 232.12V232.12ZM309.6 301.68C308.66 300.7 308.44 299.96 307.6 300.24C306.02 301.04 291.04 322.24 288.88 323.6C284.44 317.04 293.62 302.16 293.16 301.24C292.88 300.86 298.8 299.24 305.48 291.58C313.12 300.42 313 298.88 309.58 301.68H309.6ZM304.66 290.52C301.366 294.667 297.289 298.126 292.66 300.7C286.66 294.06 285.84 293.08 284.66 291.64C301.12 281.22 295.96 280.32 304.64 290.52H304.66ZM358.42 200.18C358.08 215.56 352.3 225.38 344.66 231.04C337.48 207.9 339.4 214.92 340.42 207.34C360.42 201.96 358.44 197.96 358.4 200.18H358.42ZM361.48 169.3C357.3 164.64 350.86 163.3 344.88 161.92C349.86 159.38 355.72 156.22 357.2 152.26C359.2 145.7 356.14 129.92 354.9 126.08C349.76 109.98 346.4 115.1 352.9 113.04C366.06 121.92 362.84 149.18 361.46 169.3H361.48ZM283.26 169.62C271.62 170.96 277.92 173.74 275.26 175.3C273.38 176.38 272.74 178.64 275.78 179.3C278.02 179.8 277.78 179.3 276.74 179.96C274.5 181.3 273.92 184.54 282.3 183.7C281.34 185.54 276.52 194.8 275.2 196.44C274.72 197.04 241.94 195 220.3 192.44C220.48 192.24 241.52 165.74 246.62 161.2C247.1 160.98 282.62 165.2 282.82 165.2C282.425 166.676 282.574 168.245 283.24 169.62H283.26ZM277.12 182.2C275.62 180.2 285.7 180.66 283.42 178.48C283.22 178.36 263.98 177.42 284.22 175.18C284.404 175.138 284.567 175.031 284.678 174.878C284.79 174.725 284.841 174.537 284.824 174.349C284.807 174.16 284.722 173.985 284.585 173.854C284.448 173.724 284.269 173.648 284.08 173.64C280.48 173.74 278.24 174.4 277.52 173.64C276.34 171.34 283.12 171.36 284.26 170.94C286.26 170.4 282.64 166.94 284.56 164.94C285.56 164.04 288.46 169.78 288.88 170.16C294.7 174.02 317.72 138.58 331.78 137.26C335.26 136.92 325.78 136.5 321.9 140.24C313.9 117.6 314.1 118.4 314.16 117.52C314.42 114.04 318.34 112.56 321.72 113.12C325.1 113.68 325.82 115.88 329.46 115.9C331.322 115.91 333.167 115.544 334.885 114.826C336.603 114.108 338.159 113.052 339.46 111.72C342.034 112.793 344.775 113.408 347.56 113.54C352.08 123.22 353.66 124.16 355.38 135.18C356.28 140.92 358.12 150.64 354.08 154.38C345.58 162.26 288.62 186.14 277.1 182.2H277.12ZM287.78 165.74C291.78 166.26 291.18 165.74 290.4 167.48C289.34 169.7 290.08 169 287.76 165.74H287.78ZM245 60.64C234.54 57.4 245.48 45.12 245 49.02C245 49.22 244.42 49.4 244.26 49.5C242.26 50.64 239.74 59.5 248.62 59.86C253.42 60.08 248.1 61.62 245 60.64ZM245.48 48.64C242.48 40.64 242.36 41.9 241.7 38.24C245.7 37.78 250.02 38.1 247.42 36.6C246 35.78 244.6 36.74 245.24 36.2C251.24 30.5 249.1 24.78 250.3 27.88C250.877 29.2507 251.792 30.4532 252.958 31.3756C254.125 32.2981 255.506 32.9105 256.973 33.156C258.44 33.4015 259.945 33.272 261.348 32.7797C262.752 32.2873 264.008 31.4481 265 30.34C266.68 34.8 268.56 37.12 273.86 37.64C277.4 37.98 276.84 37.54 278.18 36.2C283.32 31.06 288.18 41.2 281.94 44.2C279.66 45 282.92 55.28 289.02 52.66C293.58 50.66 292.34 41.2 287.26 40.82C285.38 40.68 286.34 40.2 286.64 40.16C293.24 39.22 296.04 50.62 290.2 53.86C284.84 56.84 278.42 50.62 280.82 44.4C276.52 44.98 276.54 50.6 278.82 54.3C279.1 54.74 269.84 55.1 270.7 61.86C271.28 64.78 274.7 65.44 277.64 65.38C271.38 79.98 279.36 82.02 286.28 75.08C286.851 76.9234 287.672 78.6797 288.72 80.3C291.98 84.44 256.98 94.78 258 78.66C259.973 77.5495 261.846 76.2714 263.6 74.84C263.862 72.8446 263.814 70.8209 263.46 68.84C262.56 63.62 253.86 71 245.4 48.6L245.48 48.64ZM270.26 117.38C266.26 114.3 260.26 91.22 259.1 85.68C274.36 94.68 288.12 82.86 287.34 84.56C285 89.48 272.62 113.88 270.18 117.34L270.26 117.38ZM271.8 131C264.5 131.82 262.62 122 268.22 119.6C279.14 115.56 282.34 129.78 271.8 131ZM254.28 80.46C254.28 80.46 256.08 79.54 257.3 78.86C257.1 83.4 259.24 84.22 254.28 80.42V80.46ZM219.4 120.22C216.68 116.1 220.24 118.56 229.14 108.58C236.08 100.82 243.34 84.16 252.16 80.58C252.66 81.02 255.34 83.12 257.9 84.9C259.4 94.6 264.5 112.9 268.26 117.62C268.44 117.84 259.36 120.76 265.56 130.26C276.44 138.98 285.36 120.26 273.16 117.76C270.3 117.2 271.88 121.08 285.6 90.52C289.6 81.52 287.5 84.52 290.86 82C293.76 83.58 301.82 84.12 301.82 75.48C308.62 81.1 317.16 78.96 314.92 72.96C335.32 78.5 337.78 90.64 347.12 99.2C353.12 104.76 357.96 104.16 357.48 107.72C357.48 109.46 351.68 113.94 342.68 111.42C339.6 110.56 339.26 109.92 338.68 110.64C337.341 112.089 335.675 113.198 333.821 113.873C331.966 114.548 329.977 114.77 328.02 114.52C326.32 114.08 325.36 113.06 322.96 112.2C319.7 111.26 314.96 112.2 313.5 115.6C308.78 96.6 310.08 94.08 309 93C304.8 97.28 318.78 135.44 320.68 141.24C317.28 143.24 308.48 151.98 305.7 154.76C305 155.46 290.46 152.14 242.16 151.9C246.32 143.6 253.26 138.32 253.62 137.32C253.74 136.66 245.48 128.36 247 119.2C249.3 105.2 255.3 97.48 252.76 99.78C247.96 107.26 244.22 115.64 246.08 124.48C245.223 125.096 244.232 125.499 243.189 125.655C242.145 125.812 241.08 125.717 240.08 125.38C236.08 123.88 235.12 117.8 224.48 122.18C223.535 122.44 222.532 122.39 221.617 122.037C220.703 121.684 219.926 121.047 219.4 120.22V120.22ZM225.18 123.3C228.82 122.68 231.62 121.3 234.04 122.8C236.04 124.04 239.84 129.76 246.24 126.16C248 128.74 247.38 132.64 251.82 137.12C233.12 155.6 244.48 160.88 212.74 160.42C213.22 155.52 214.32 143.8 214.86 137.5C224.66 136.34 218.32 142.88 225.18 123.3V123.3ZM215.38 107.48C215.38 116.64 211.2 161.14 210.18 170.24C200.72 173.4 138.6 190.86 117.06 194.24C117.5 181.3 121.3 143.14 124.78 130.66C135.5 125.38 205 109 215.38 107.48V107.48ZM73.38 174.1C79.38 170.1 109.5 163.52 118.72 161.4C118.72 161.88 118.38 164.32 118.32 164.8C70.06 174.66 79.72 176.84 73.44 174.1H73.38ZM127.38 84.28C115.98 110.78 115.38 102.96 125.6 106.14C126.66 106.48 110.92 139.74 110.86 140.84C108.44 188.64 109.38 130.6 114.1 82.84C114.76 76.26 112.12 75 127.4 84.28H127.38ZM114.42 153.52C114.42 153.732 114.336 153.936 114.186 154.086C114.036 154.236 113.832 154.32 113.62 154.32C113.408 154.32 113.204 154.236 113.054 154.086C112.904 153.936 112.82 153.732 112.82 153.52C112.8 149 114.42 146.64 114.42 153.52ZM107 74.28C116.14 77.42 113.98 74.7 112.56 89.34C112.56 88.92 110.7 87.82 106.42 83.46C108.34 81.72 107.5 76.82 107 74.28ZM107.24 94.6C108.6 94.26 108.8 90.6 108.92 88.08C113.44 92.28 112.48 89.16 111.48 100.94C108.8 93.92 108.82 94.34 108.46 94.18C107.96 95.18 105.3 96.42 103.92 95.32C103.78 96.74 104.54 113.12 104.66 117.74C71.96 60.36 93.44 103.24 99.74 91.64C105.56 95.28 103.5 95.54 107.28 94.6H107.24ZM124.74 35C130.74 34.88 131.66 46.28 125 46.54C118.34 46.8 118.18 35.12 124.74 35V35ZM119 27.22C119.48 28.8 120.36 32.02 121 34.96C117.82 37.62 119.8 39.76 117.44 40.12C117 39 117 38.36 116.4 39C116.4 40.66 116.94 40.2 114.7 40.62C110.92 41.3 113.74 40.9 111.44 38.26C110.626 37.2363 109.546 36.456 108.318 36.0044C107.09 35.5527 105.762 35.447 104.478 35.6988C103.195 35.9506 102.005 36.5502 101.039 37.4321C100.073 38.3141 99.3674 39.4445 99 40.7C97.26 40.7 91.88 40.5 91 40.36C89.8 36.82 87.64 24.2 87.62 24.04C102.6 33.32 115.18 30.46 119 27.22ZM111.8 45.22C110.56 48.94 102.62 50.28 100.62 44.32C97.44 35 115.62 33.58 111.76 45.22H111.8ZM79.38 52.64C76.78 51.3 76.12 43.24 80.68 42.64C83.64 42.28 85.22 45.56 86.4 46.1C89.44 47.46 91.32 45.56 91.32 42.2H98.76C98.34 52.6 114.76 52.2 113.02 42.38C118.02 42.16 115.76 38.96 118.2 49.78C116.6 50.56 113.88 50.92 113.76 51.36C114.32 52.24 119.76 51.74 119.76 49.62C119.14 46 118.68 43.82 118.36 42.62C118.72 43.739 119.307 44.7716 120.085 45.6527C120.862 46.5338 121.814 47.2445 122.88 47.74C123 49.28 123.02 50.44 123.06 52.48C123.68 76.92 105.06 67.64 104.82 70.48C104.82 71.48 107.2 80.48 105.52 82.06C100.56 80.86 84.56 70.68 84.06 69.36C84.04 46.38 84 55 79.38 52.64ZM102.22 82.64C100.752 86.2623 99.0069 89.7661 97 93.12C83.7 84.22 82.18 79 77.62 71C88.36 69.16 77.6 71.18 102.22 82.66V82.64ZM76.22 71.6C113.58 135.6 109.76 124.42 109.04 134.8C104.12 131.76 77.62 115.08 74.36 112.44C75.14 110.12 82.98 102.96 83.42 101.64C83.86 100.32 59.64 76.24 59.72 76.22C65.0556 74.2526 70.5397 72.7144 76.12 71.62L76.22 71.6ZM47.36 161.6C50.62 162.38 49.86 162.92 50.56 161.78C59.22 147.78 63.16 121.54 63.54 121.22C64.7 122.64 61.74 146.34 51.82 161.22C49.94 164.04 49.92 161.22 55.38 167.64C71 163.82 98.02 161 119.12 158.78C119.12 159.3 118.96 160.14 118.9 160.78C105.2 163.52 62.72 170.38 71.52 178.94C74.28 181.28 114.92 196.94 116.9 194.94C137.52 192.3 206.1 173.72 211.14 171.62C211.68 171.26 211.62 172.1 212.62 161.84C224.46 162.24 228.62 163.84 236.04 158.42C238.193 156.863 240.13 155.027 241.8 152.96C261.5 153.2 284.86 153.98 304.5 156.2C284.78 176.38 296.1 165.52 290.9 164.82C282.16 163.62 246.28 160.32 246.5 160.66C245.94 159.88 220.02 189.72 218.5 192.48C216.98 195.24 274.86 199.08 276.1 197.78C277.34 196.48 283.04 185.54 284.1 183.6C294.26 182.28 308.1 180.36 343 162.98C373.2 170.54 363.66 184.6 349 190.1C343.88 192.1 294.74 206.3 228.52 211.24C107.44 220.26 34.74 195.24 38.66 195.24C39.64 195.24 40.08 193.96 41.78 190.8C50.34 198.34 72.06 204.98 66.68 198.02C67.794 198.184 68.9261 198.184 70.04 198.02C72.16 197.54 72.3 195.52 70.6 194.02C69.74 193.28 69.62 193.52 70.38 193.46C73.7 193.22 73.9 190.64 71.32 189.18C67.84 187.18 61.72 187.4 59.96 184.2C58.68 181.88 63.24 179.54 61.66 177C60.56 175.24 58.8 175.96 57.08 177.12C53.6 179.54 54.86 179.74 52.36 177.44C56.92 174.26 58.36 175.82 57.62 173.56C56.7644 171.062 55.3285 168.802 53.4302 166.966C51.532 165.131 49.2255 163.771 46.7 163C30.08 159.6 24.2 171 23.68 171C22.56 167.98 32.68 158.16 47.26 161.56L47.36 161.6ZM59.6 185.92C61.98 188.9 71.78 189.46 71.6 191.62C70.76 193.9 59.7 188.34 60.2 191.28C60.52 192.16 61.16 191.7 65.08 193.06C72.78 195.76 72.36 198.56 60.76 194.64C58.62 193.92 58.32 194.64 58.66 195.42C59 196.2 66.18 197.74 65.78 199.42C65.36 200.72 48.56 195.82 42.18 190.16C44.5126 185.435 47.8183 181.257 51.88 177.9C53.5 179.48 54.18 180.2 54.58 180.06C54.98 179.92 60.74 174.88 60.96 178.06C61 180.22 56.38 182 59.5 185.88L59.6 185.92ZM28.08 205.32C45.7 215.06 46.32 203.74 36.66 234.54C31.5203 225.599 28.5475 215.578 27.98 205.28L28.08 205.32ZM6.66002 345.46C5.94002 346.86 2.66002 347.92 3.50002 343.46C7.16002 324.54 32.36 257.46 44.02 211.74C48.42 213.12 51.38 213.94 55.8 215.08C52.5 224.26 7.48002 344.2 6.66002 345.46V345.46ZM53.82 332.36C52.92 338.36 48.3 338.7 47.82 332.24C47.26 323.66 50.1 301.2 52.02 250.78C55.952 253.158 60.0568 255.237 64.3 257C63.52 263.1 56.46 314.82 53.82 332.36V332.36ZM130.58 338.84C123.7 341.48 125.1 344.04 120.08 267.84C121.02 267.84 126.74 267.94 131.82 267.5C131.24 304.08 131.36 333.8 130.58 338.84V338.84ZM45.88 245.1C54.66 221.1 45.26 235.32 70.06 247.34C92.06 258 111.9 259.34 136.4 259C137.56 262.28 138.4 264.74 138.58 265C115.1 269.32 68.2 263 45.88 245.1V245.1ZM132.68 326.8C133.86 257.62 129.72 268.18 139.12 266.56C142.86 276.9 144.7 281.8 146 285.3C133.08 320.28 133.52 318.54 134.8 319.3C136.62 320.5 136.2 318.82 132.68 326.8ZM157.44 315.4C154.934 318.692 152.264 321.856 149.44 324.88C144.792 323.002 140.293 320.776 135.98 318.22C135.8 318.1 144.54 292.08 146.38 286.22C156.32 313 157.66 315.12 157.44 315.4ZM182.28 327.6C181.28 327.9 170.52 330.48 166.5 331.14C116.7 228.52 162.04 265.84 101.56 256.02C87.56 253.72 68.38 247.86 57.46 237.52C49.06 229.52 50.62 232.52 56.58 215.32C59.78 215.96 103.62 227.9 174.34 227.9C184.56 254.12 183.74 319 182.28 327.6V327.6ZM184.28 282.64C183.3 267.94 182.42 245.7 175.9 227.88C198.8 228 196.08 227.08 197.02 228.26C209.2 243.52 195.34 267 184.3 282.64H184.28ZM201.38 235.3C198.56 225.68 193.7 228 202.66 227.52C202.436 230.141 202.015 232.742 201.4 235.3H201.38ZM217.16 229.94C212.16 226.32 214.82 227 216.96 226.88C217.12 230.08 217.4 230.1 217.18 229.94H217.16ZM251.88 335.94C247.74 335.94 248.54 336.9 248.44 334.56C248.3 331.66 225.7 339.22 218.44 339.22C219.12 333.22 230.44 327.86 235.96 325.44C235.96 325.44 237.22 325.44 241.48 325.9C255.28 327.36 251.9 321.24 251.9 335.94H251.88ZM235.88 310.84C245.28 311.64 252.26 311.26 252.24 311.46C251.9 313.96 252.24 324.36 251.84 324.44C246.688 325.415 241.394 325.367 236.26 324.3C235.96 310.1 236.12 311.68 235.88 310.84V310.84ZM26.26 202.4C23.06 200.4 20.44 198.62 21.96 188.6C48.4 211 203.96 232.06 344.9 192.82C360.9 188.36 363.26 180.16 363.24 180.82C362.72 199.04 357.4 201.84 341.36 206.14C207.64 241.92 58.16 223.24 26.26 202.4V202.4ZM259.68 336.16C259.16 332.82 259 315.32 258.96 311.4C263.16 311.28 261.9 314.76 264.12 286.2C264.26 286.32 266.12 252.88 267.34 243.8C267.5 242.54 268.02 242.24 267.98 243.8C267.98 244.8 267.98 246.12 267.88 247.8C266.22 294.26 263.88 285.8 268.48 289.8C265 338.64 266.6 338.8 259.68 336.16V336.16ZM274.56 246.86C274.08 246.86 274.9 247.48 268.28 241.44C272.58 240.86 310.28 240.64 329.42 225.74C331.04 230.28 330.66 229.22 333.56 237.2C316.5 244.38 292.54 247.7 274.56 246.86ZM338.42 334.46C338.12 334.1 327.6 258.64 325.64 241.46C336.32 238.06 332.8 235.14 338.32 250.26C343.54 330.38 347 338.76 338.42 334.46V334.46ZM375.36 344.62C374.86 343.74 328.32 220.62 325.16 211.22C329.16 210.26 334.26 208.98 337.3 208.18C348.46 254.18 376.08 326.72 378.6 343.5C379.22 347.58 376.84 347.36 375.36 344.62Z" fill="black"/>
</svg>
